<?xml version="1.0" standalone="no"?>
<!DOCTYPE svg PUBLIC "-//W3C//DTD SVG 1.1//EN" "http://www.w3.org/Graphics/SVG/1.1/DTD/svg11.dtd" >
<svg xmlns="http://www.w3.org/2000/svg" xmlns:xlink="http://www.w3.org/1999/xlink" version="1.1">
<metadata>
Created by FontForge 20150824 at Wed Aug 17 02:40:27 2016
 By Everything Fonts
Copyright (c) 2012 by Fontfabric LLC. All rights reserved.
</metadata>
<defs>
<font id="PantonW01Regular" horiz-adv-x="549" >
  <font-face 
    font-family="PantonW01Regular"
    font-weight="400"
    font-stretch="normal"
    units-per-em="1000"
    panose-1="1 0 0 0 0 0 0 0 0 0"
    ascent="800"
    descent="-200"
    x-height="514"
    cap-height="710"
    bbox="-92 -247 1148 914.1"
    underline-thickness="50"
    underline-position="-225"
    unicode-range="U+0020-2122"
  />
<missing-glyph horiz-adv-x="686" 
d="M605 20q0 -20 -20 -20h-479q-20 0 -20 20v670q0 20 20 20h479q20 0 20 -20v-670zM158 68h375v574h-375v-574z" />
    <glyph glyph-name=".notdef" horiz-adv-x="686" 
d="M605 20q0 -20 -20 -20h-479q-20 0 -20 20v670q0 20 20 20h479q20 0 20 -20v-670zM158 68h375v574h-375v-574z" />
    <glyph glyph-name=".null" horiz-adv-x="0" 
 />
    <glyph glyph-name="nonmarkingreturn" horiz-adv-x="333" 
 />
    <glyph glyph-name="glyph181" horiz-adv-x="262" 
 />
    <glyph glyph-name="glyph181" horiz-adv-x="262" 
 />
    <glyph glyph-name="space" unicode=" " horiz-adv-x="236" 
 />
    <glyph glyph-name="exclam" unicode="!" horiz-adv-x="207" 
d="M121 740q10 0 14 -3.5t4 -14.5l-9 -536q0 -10 -3.5 -14t-14.5 -4h-18q-17 0 -18 18l-8 536q0 11 4 14.5t14 3.5h35zM106 80q23 0 31.5 -8.5t8.5 -31.5v-6q0 -23 -8.5 -31.5t-31.5 -8.5h-6q-23 0 -31 8.5t-8 31.5v6q0 23 8 31.5t31 8.5h6z" />
    <glyph glyph-name="quotedbl" unicode="&#x22;" horiz-adv-x="295" 
d="M117 490q-1 -11 -4 -13.5t-14 -2.5h-18q-11 0 -14 2.5t-3 13.5v204q0 10 3 13t14 3h28q11 0 14.5 -3t2.5 -13zM227 490q-1 -11 -4 -13.5t-13 -2.5h-19q-10 0 -13 2.5t-3 13.5v204q0 10 3 13t13 3h29q10 0 14 -3t3 -13z" />
    <glyph glyph-name="numbersign" unicode="#" horiz-adv-x="680" 
d="M631 480q11 0 14 -3.5t0 -14.5l-8 -28q-3 -10 -8 -13t-16 -3h-105l-49 -165h105q11 0 14 -3.5t0 -14.5l-9 -28q-3 -10 -8 -13t-15 -3h-105l-52 -173q-4 -10 -8 -14t-15 -4h-30q-19 0 -13 18l51 173h-157l-52 -173q-2 -10 -6.5 -14t-15.5 -4h-30q-19 0 -13 18l51 173h-103
q-10 0 -13 3.5t0 14.5l8 27q5 17 25 17h102l49 165h-103q-11 0 -14 3.5t0 14.5l9 27q4 17 24 17h102l47 156q3 10 7.5 14t15.5 4h30q19 0 13 -18l-47 -156h157l47 156q3 10 7.5 14t15.5 4h30q19 0 13 -18l-46 -156h104zM236 253h157l49 165h-157z" />
    <glyph glyph-name="dollar" unicode="$" horiz-adv-x="590" 
d="M308 783q18 0 18 -18v-63q42 -4 73.5 -15.5t56 -31t43 -46t35.5 -60.5q11 -19 -11 -28l-28 -13q-10 -4 -16 -2.5t-11 12.5q-14 28 -30 50t-37 37t-49 22.5t-66 7.5q-82 0 -121 -32.5t-39 -95.5q0 -36 15 -57t39.5 -33t57 -17t67.5 -8q42 -4 85 -11.5t77.5 -26.5t56 -54
t21.5 -94q0 -88 -55 -138t-164 -58v-65q0 -18 -18 -18h-31q-11 0 -14.5 4t-3.5 14v64q-88 8 -138.5 51.5t-78.5 115.5q-8 20 13 28l28 10q11 4 16.5 1.5t10.5 -13.5q13 -30 28.5 -54t37.5 -40t50.5 -24.5t66.5 -8.5q179 0 179 129q0 37 -15 59t-40 34t-57.5 17t-67.5 9
q-43 4 -85.5 12t-77 27t-56 53t-21.5 91q0 87 51 138t156 58v63q0 10 3.5 14t14.5 4h31v0z" />
    <glyph glyph-name="percent" unicode="%" horiz-adv-x="812" 
d="M36 578q0 69 40 108t118 39t118.5 -39t40.5 -108v-73q0 -69 -40.5 -107.5t-118.5 -38.5t-118 38.5t-40 107.5v73zM681 710q11 0 13 -5.5t-4 -13.5l-495 -673q-8 -12 -14.5 -15t-24.5 -3h-23q-11 0 -13.5 6t2.5 14l496 673q8 11 14 14t22 3h27zM296 576q0 45 -26 69.5
t-76 24.5q-49 0 -75 -24.5t-26 -69.5v-68q0 -45 26 -69.5t75 -24.5q50 0 76 24.5t26 69.5v68zM459 204q0 69 40 108t118 39t118.5 -39t40.5 -108v-74q0 -68 -40.5 -106.5t-118.5 -38.5t-118 38.5t-40 106.5v74zM718 201q0 45 -25.5 70t-75.5 25q-49 0 -75 -25t-26 -70v-67
q0 -45 26 -70t75 -25q50 0 75.5 25t25.5 70v67z" />
    <glyph glyph-name="ampersand" unicode="&#x26;" horiz-adv-x="661" 
d="M106 553q0 33 12 64t35.5 55t57 38t76.5 14q38 0 70.5 -13.5t56 -36t37 -53t13.5 -64.5q0 -35 -10 -62.5t-29.5 -49.5t-49.5 -40t-70 -36l-9 -4l179 -175l69 67q12 12 24 0l23 -24q10 -10 -1 -21l-71 -69l126 -125q18 -18 -8 -18h-42q-11 0 -16.5 2t-11.5 9l-92 90
q-40 -36 -71.5 -58.5t-58.5 -35t-52.5 -17t-53.5 -4.5q-42 0 -78 14.5t-62.5 40.5t-41.5 62t-15 78q0 41 12.5 72.5t33.5 55.5t48.5 41.5t57.5 32.5q-35 35 -61.5 76t-26.5 94zM401 557q0 21 -8.5 40.5t-23.5 34.5t-36 24t-46 9q-27 0 -49 -9.5t-37 -25t-23 -36t-8 -42.5
q0 -43 24 -75t58 -66l25 13q27 12 49.5 23.5t39 26.5t26 34.5t9.5 48.5zM238 337q-60 -27 -93.5 -62t-33.5 -95q0 -28 10 -52t28 -41t42 -27t51 -10q23 0 44 4.5t42.5 16t46.5 30t56 47.5z" />
    <glyph glyph-name="quotesingle" unicode="'" horiz-adv-x="184" 
d="M117 490q-1 -11 -4 -13.5t-14 -2.5h-18q-11 0 -14 2.5t-3 13.5v204q0 10 3 13t14 3h28q11 0 14.5 -3t2.5 -13l-9 -204v0z" />
    <glyph glyph-name="parenleft" unicode="(" horiz-adv-x="256" 
d="M60 611q0 94 36 146.5t104 83.5q10 5 14.5 2t9.5 -12l13 -26q4 -9 2 -13.5t-12 -10.5q-49 -23 -75 -60t-26 -106v-520q0 -69 26 -106t75 -60q10 -6 12.5 -10.5t-2.5 -13.5l-13 -26q-5 -9 -9.5 -12t-14.5 2q-68 31 -104 83.5t-36 146.5v512v0z" />
    <glyph glyph-name="parenright" unicode=")" horiz-adv-x="256" 
d="M32 831q5 9 9.5 12t14.5 -2q68 -31 104 -83.5t36 -146.5v-512q0 -94 -36 -146.5t-104 -83.5q-10 -5 -14.5 -2t-9.5 12l-13 26q-4 9 -1.5 13.5t11.5 10.5q49 23 75 60t26 106v520q0 69 -26 106t-75 60q-9 6 -11.5 10.5t1.5 13.5l13 26v0z" />
    <glyph glyph-name="asterisk" unicode="*" horiz-adv-x="379" 
d="M200 673q14 0 11 -12l-8 -105l98 39q7 4 10.5 2.5t6.5 -8.5l6 -20q3 -12 -9 -15l-103 -24l68 -82q10 -8 -1 -16l-18 -12q-10 -9 -16 3l-55 89l-56 -88q-5 -12 -17 -5l-17 13q-11 8 -2 17l69 81l-101 25q-14 1 -9 14l6 21q6 11 16 6l97 -40l-7 105q-3 12 10 12h21v0z" />
    <glyph glyph-name="plus" unicode="+" horiz-adv-x="567" 
d="M500 359q19 0 19 -20v-24q0 -11 -4 -15t-15 -4h-185v-185q0 -20 -20 -20h-24q-20 0 -20 20v185h-184q-11 0 -15.5 4t-4.5 15v24q0 20 20 20h184v184q0 20 20 20h24q20 0 20 -20v-184h185v0z" />
    <glyph glyph-name="comma" unicode="," horiz-adv-x="181" 
d="M71 -103q-3 -11 -7.5 -14.5t-14.5 -3.5h-13q-15 0 -12 14l34 166q2 13 7 17.5t18 4.5h26q28 0 19 -22l-57 -162v0z" />
    <glyph glyph-name="hyphen" unicode="-" horiz-adv-x="422" 
d="M340 298q20 0 20 -20v-25q0 -20 -20 -20h-259q-19 0 -19 20v25q0 20 19 20h259v0z" />
    <glyph glyph-name="period" unicode="." horiz-adv-x="186" 
d="M96 80q23 0 31 -8.5t8 -31.5v-6q0 -23 -8 -31.5t-31 -8.5h-6q-23 0 -31.5 8.5t-8.5 31.5v6q0 23 8.5 31.5t31.5 8.5h6v0z" />
    <glyph glyph-name="slash" unicode="/" horiz-adv-x="408" 
d="M102 -43q-4 -10 -8.5 -13.5t-15.5 -3.5h-33q-11 0 -13 4t1 13l273 737q4 10 9 13t16 3h33q18 0 12 -16l-274 -737v0z" />
    <glyph glyph-name="zero" unicode="0" horiz-adv-x="626" 
d="M58 492q0 108 66.5 170t188.5 62t188.5 -62t66.5 -170v-274q0 -108 -66.5 -170t-188.5 -62t-188.5 62t-66.5 170v274zM495 492q0 78 -47 121.5t-135 43.5t-135.5 -43.5t-47.5 -121.5v-274q0 -78 47.5 -121.5t135.5 -43.5t135 43.5t47 121.5v274z" />
    <glyph glyph-name="one" unicode="1" horiz-adv-x="444" 
d="M336 710q20 0 20 -20v-670q0 -20 -20 -20h-32q-12 0 -16.5 4.5t-4.5 15.5v602l-211 -117q-19 -11 -29 7l-15 27q-9 16 9 26l244 137q8 5 13 6.5t15 1.5h27v0z" />
    <glyph glyph-name="two" unicode="2" horiz-adv-x="590" 
d="M54 562q33 77 94 119.5t163 42.5q52 0 94.5 -17t72.5 -46.5t46 -68.5t16 -82q0 -57 -18 -96.5t-52 -69t-82 -52.5t-109 -47q-28 -11 -55.5 -22t-49 -27t-35 -37.5t-13.5 -51.5v-39h388q20 0 20 -20v-28q0 -20 -20 -20h-443q-21 0 -21 20v73q0 50 17.5 85t47 59.5t67 42
t76.5 32.5t76 30.5t66 37t46.5 52t17.5 75.5q0 31 -11 58.5t-31.5 47.5t-49 32t-63.5 12q-72 0 -116 -30t-71 -90q-5 -11 -9.5 -13.5t-15.5 1.5l-31 12q-11 4 -14 9t2 16z" />
    <glyph glyph-name="three" unicode="3" horiz-adv-x="599" 
d="M529 526q0 -52 -21 -94.5t-69 -62.5q57 -20 84.5 -66t27.5 -107q0 -48 -14.5 -86.5t-44.5 -66t-75.5 -42.5t-108.5 -15q-58 0 -101 11.5t-74 34t-51.5 54.5t-33.5 74q-4 11 -1 16.5t13 9.5l31 11q19 7 26 -13q10 -32 24.5 -56.5t36.5 -41t53.5 -25t76.5 -8.5
q88 0 128 38.5t40 105.5q0 62 -34 97.5t-100 35.5h-145q-20 0 -20 19v27q0 20 20 20h136q62 0 93 36t31 87q0 67 -38 102.5t-113 35.5q-42 0 -72.5 -8t-51.5 -23.5t-35 -39.5t-24 -57q-4 -11 -9.5 -13t-16.5 1l-31 11q-10 4 -13 9t1 16q13 42 33.5 74t50.5 53.5t72 32.5
t98 11q109 0 165 -52t56 -146z" />
    <glyph glyph-name="four" unicode="4" horiz-adv-x="610" 
d="M562 258q20 0 20 -20v-25q0 -20 -20 -20h-92v-173q0 -20 -20 -20h-29q-20 0 -20 20v173h-356q-20 0 -20 20v21q0 10 1 14t6 10l358 446q7 8 12 11t16 3h31q12 0 16.5 -4.5t4.5 -15.5v-440h92zM111 258h290v360z" />
    <glyph glyph-name="five" unicode="5" horiz-adv-x="585" 
d="M497 710q20 0 20 -20v-28q0 -20 -20 -20h-329l-21 -213h165q59 0 103 -17t72.5 -46.5t42.5 -69t14 -84.5q0 -46 -16.5 -87.5t-47.5 -72.5t-76 -49t-102 -18q-108 0 -170 41t-90 117q-4 11 -1.5 16t12.5 9l33 12q17 7 25 -13q20 -56 65 -85t126 -29q38 0 68.5 12t52 33
t33 50t11.5 64q0 32 -10 59.5t-30.5 47.5t-50 31.5t-68.5 11.5h-216q-14 0 -19 5.5t-3 18.5l30 293q2 18 9 24.5t25 6.5h363v0z" />
    <glyph glyph-name="six" unicode="6" horiz-adv-x="621" 
d="M129 389q19 6 69 18.5t127 12.5q128 0 188 -54t60 -163q0 -103 -68 -160t-190 -57q-127 0 -192.5 67.5t-65.5 184.5v234q0 122 65.5 187t192.5 65q100 0 159.5 -39t88.5 -114q4 -11 1 -16t-14 -9l-30 -11q-11 -4 -15.5 -1t-9.5 14q-22 53 -65 81t-115 28
q-91 0 -138.5 -46.5t-47.5 -138.5v-83zM129 238q0 -88 47 -136.5t139 -48.5q90 0 138 39t48 111q0 75 -43 112t-138 37q-40 0 -72.5 -4.5t-57 -10t-40 -11t-21.5 -8.5v-80z" />
    <glyph glyph-name="seven" unicode="7" horiz-adv-x="519" 
d="M487 710q19 0 19 -20v-20q0 -8 -1 -13.5t-4 -14.5l-277 -624q-5 -12 -11.5 -15t-25.5 -3h-32q-11 0 -12.5 5.5t2.5 14.5l278 622h-377q-11 0 -15 4.5t-4 15.5v28q0 11 4 15.5t15 4.5h441v0z" />
    <glyph glyph-name="eight" unicode="8" horiz-adv-x="616" 
d="M69 538q0 91 63.5 138.5t174.5 47.5q119 0 179.5 -46t60.5 -135q0 -43 -15 -73.5t-36.5 -51.5t-45.5 -33.5t-43 -19.5q32 -11 61.5 -25.5t51.5 -36t35 -51.5t13 -72q0 -43 -14.5 -79t-45.5 -61.5t-81 -39.5t-120 -14q-71 0 -120 13t-80 36.5t-45 57.5t-14 76
q0 46 17.5 79t43 55.5t53 36t48.5 21.5q-29 12 -54.5 27t-45 36t-30.5 48.5t-11 65.5zM476 537q0 61 -43 92.5t-125 31.5q-79 0 -122.5 -31.5t-43.5 -92.5q0 -35 14 -58.5t37.5 -39t54 -25.5t64.5 -19l23 -7q12 3 35.5 11t47 24.5t41 44t17.5 69.5zM492 179q0 40 -17 65.5
t-46.5 41.5t-68 26.5t-81.5 22.5q-11 -3 -37 -11.5t-53 -26t-47.5 -47t-20.5 -74.5q0 -30 10 -53.5t32 -40t58 -25t87 -8.5t86 9t57 26t31.5 41t9.5 54z" />
    <glyph glyph-name="nine" unicode="9" horiz-adv-x="621" 
d="M491 321q-18 -6 -68 -18.5t-127 -12.5q-128 0 -188 54t-60 163q0 103 68 160t190 57q127 0 192.5 -67.5t65.5 -184.5v-234q0 -122 -65.5 -187t-192.5 -65q-100 0 -159.5 39t-88.5 114q-4 11 -1 16t14 9l30 11q11 4 15.5 1t9.5 -14q22 -53 65 -81t115 -28q91 0 138 46.5
t47 138.5v83zM491 472q0 88 -46.5 136.5t-138.5 48.5q-90 0 -138 -39t-48 -111q0 -75 43 -112t138 -37q40 0 72.5 4.5t56.5 10t39.5 11t21.5 8.5v80z" />
    <glyph glyph-name="colon" unicode=":" horiz-adv-x="209" 
d="M107 486q23 0 31.5 -8t8.5 -31v-7q0 -23 -8.5 -31t-31.5 -8h-6q-23 0 -31 8t-8 31v7q0 23 8 31t31 8h6zM107 80q23 0 31.5 -8.5t8.5 -31.5v-6q0 -23 -8.5 -31.5t-31.5 -8.5h-6q-23 0 -31 8.5t-8 31.5v6q0 23 8 31.5t31 8.5h6z" />
    <glyph glyph-name="semicolon" unicode=";" horiz-adv-x="237" 
d="M131 486q23 0 31.5 -8t8.5 -31v-7q0 -23 -8.5 -31t-31.5 -8h-6q-23 0 -31 8t-8 31v7q0 23 8 31t31 8h6zM101 -103q-4 -11 -8 -14.5t-15 -3.5h-12q-9 0 -11.5 3t-1.5 11l34 166q2 13 7.5 17.5t18.5 4.5h26q26 0 19 -22z" />
    <glyph glyph-name="less" unicode="&#x3c;" horiz-adv-x="497" 
d="M414 557q22 11 22 -15v-26q0 -16 -4 -21.5t-16 -11.5l-294 -154v-3l294 -155q12 -6 16 -11t4 -22v-28q0 -26 -22 -15l-362 196q-9 5 -12.5 10t-3.5 16v18q0 11 3.5 16t12.5 10l362 196v0z" />
    <glyph glyph-name="equal" unicode="=" horiz-adv-x="598" 
d="M515 458q20 0 20 -19v-26q0 -20 -20 -20h-433q-19 0 -19 20v26q0 19 19 19h433zM515 261q20 0 20 -20v-26q0 -20 -20 -20h-433q-19 0 -19 20v26q0 20 19 20h433z" />
    <glyph glyph-name="greater" unicode="&#x3e;" horiz-adv-x="497" 
d="M61 542q0 27 22 15l361 -196q10 -5 13.5 -9.5t3.5 -15.5v-19q0 -11 -3.5 -16t-13.5 -10l-361 -195q-22 -12 -22 14v26q0 17 4 22t15 11l295 155v3l-294 154q-12 6 -16 11t-4 22v28v0z" />
    <glyph glyph-name="question" unicode="?" horiz-adv-x="558" 
d="M32 575q14 36 36 66.5t52.5 52t71.5 34t94 12.5q57 0 101 -16.5t74.5 -44.5t46.5 -65.5t16 -79.5q0 -53 -14 -89.5t-36 -62t-48.5 -43t-51.5 -33.5q-17 -12 -33 -24.5t-28.5 -28t-20 -35t-7.5 -44.5q0 -11 -4 -15t-15 -4h-23q-11 0 -15 4t-4 15q0 38 9 65.5t24.5 48
t35 36t40.5 29.5q22 15 43.5 30t38.5 35.5t27.5 47.5t10.5 65q0 30 -11 56.5t-32.5 46t-53 30.5t-72.5 11q-78 0 -121 -34t-65 -89q-5 -11 -9.5 -13.5t-15.5 1.5l-29 9q-19 7 -12 26zM258 80q23 0 31 -8.5t8 -31.5v-6q0 -23 -8 -31.5t-31 -8.5h-6q-23 0 -31.5 8.5t-8.5 31.5
v6q0 23 8.5 31.5t31.5 8.5h6z" />
    <glyph glyph-name="at" unicode="@" horiz-adv-x="901" 
d="M48 328q0 91 26.5 164t77.5 124.5t125.5 79.5t170.5 28q98 0 173 -28.5t125.5 -80.5t76.5 -125t26 -162v-72q0 -53 -14 -92.5t-38 -66t-55.5 -39.5t-65.5 -13q-31 0 -45.5 10.5t-25.5 30.5q-23 -10 -69.5 -23t-113.5 -13q-89 0 -131 43.5t-42 121.5v153q0 78 42 121.5
t131 43.5q61 0 107 -9.5t71 -20.5q20 -8 27 -17.5t7 -29.5v-320q0 -23 12.5 -31.5t29.5 -8.5q22 0 43.5 8.5t38.5 27.5t27 49.5t10 73.5v73q0 79 -22.5 143.5t-66 110t-108.5 70t-150 24.5q-82 0 -146.5 -24t-108.5 -69t-67.5 -109.5t-23.5 -145.5v-73q0 -165 90.5 -251.5
t255.5 -86.5q37 0 72.5 3.5t65 8.5t50 9t27.5 6q11 3 11 -7v-27q0 -8 -2.5 -10.5t-8.5 -4.5q-5 -2 -23 -6t-46 -9t-65 -8.5t-81 -3.5q-96 0 -170.5 26t-125.5 75.5t-77.5 122t-26.5 164.5v72zM559 461q-20 7 -54 13t-76 6q-64 0 -93 -29.5t-29 -84.5v-150q0 -55 29 -83.5
t93 -28.5q60 0 97.5 12.5t49.5 18.5v302q0 10 -3.5 14.5t-13.5 9.5z" />
    <glyph glyph-name="A" unicode="A" horiz-adv-x="641" 
d="M629 19q8 -19 -14 -19h-29q-18 0 -25.5 3.5t-10.5 14.5l-75 190h-313l-75 -190q-3 -11 -10 -14.5t-25 -3.5h-27q-21 0 -13 19l268 677q4 11 9 14t16 3h30q11 0 16.5 -3t9.5 -13zM335 575q-9 26 -11.5 46.5t-2.5 22.5h-5q0 -2 -2 -22.5t-10 -46.5l-121 -307h272z" />
    <glyph glyph-name="B" unicode="B" horiz-adv-x="643" 
d="M380 710q92 0 142.5 -46.5t50.5 -135.5q0 -119 -94 -160v-2q57 -15 88 -59t31 -116q0 -93 -56.5 -142t-150.5 -49h-293q-20 0 -20 20v670q0 20 20 20h282zM499 519q0 62 -32.5 92.5t-95.5 30.5h-221v-248h221q62 0 95 31t33 94zM522 198q0 64 -34.5 97.5t-99.5 33.5h-238
v-261h238q65 0 99.5 32.5t34.5 97.5z" />
    <glyph glyph-name="C" unicode="C" horiz-adv-x="636" 
d="M57 473q0 118 69.5 184.5t204.5 66.5q115 0 177.5 -43.5t88.5 -127.5q4 -11 1.5 -16.5t-13.5 -9.5l-31 -11q-11 -3 -16 -1t-10 13q-20 65 -65.5 97t-131.5 32q-100 0 -150.5 -48t-50.5 -135v-238q0 -86 51 -134.5t150 -48.5q88 0 133.5 33.5t65.5 98.5q5 11 10 13.5
t16 -0.5l31 -12q10 -4 13 -9t-1 -16q-26 -84 -88.5 -129.5t-179.5 -45.5q-133 0 -203.5 66.5t-70.5 184.5v236v0z" />
    <glyph glyph-name="D" unicode="D" horiz-adv-x="653" 
d="M309 710q70 0 124 -18.5t91 -52.5t56 -83t19 -110v-182q0 -61 -19 -110t-56 -83t-91 -52.5t-124 -18.5h-211q-20 0 -20 20v670q0 20 20 20h211zM526 446q0 94 -55.5 145t-161.5 51h-159v-574h159q106 0 161.5 51t55.5 145v182z" />
    <glyph glyph-name="E" unicode="E" horiz-adv-x="573" 
d="M503 710q19 0 19 -20v-28q0 -20 -19 -20h-353v-248h308q19 0 19 -20v-28q0 -20 -19 -20h-308v-258h366q19 0 19 -20v-28q0 -20 -19 -20h-418q-20 0 -20 20v670q0 20 20 20h405v0z" />
    <glyph glyph-name="F" unicode="F" horiz-adv-x="555" 
d="M503 710q19 0 19 -20v-28q0 -20 -19 -20h-353v-259h304q11 0 15 -4t4 -15v-28q0 -20 -19 -20h-304v-296q0 -11 -4 -15.5t-15 -4.5h-33q-20 0 -20 20v670q0 20 20 20h405v0z" />
    <glyph glyph-name="G" unicode="G" horiz-adv-x="655" 
d="M586 368q20 0 20 -20v-123q0 -54 -18 -98t-52.5 -75.5t-85.5 -48.5t-118 -17q-135 0 -205 67t-70 185v235q0 118 69.5 184.5t204.5 66.5q115 0 177.5 -43.5t88.5 -127.5q4 -11 1.5 -16.5t-13.5 -9.5l-31 -11q-11 -3 -16 -1t-10 13q-20 65 -65.5 97t-131.5 32
q-100 0 -151 -48t-51 -135v-236q0 -88 51.5 -136.5t151.5 -48.5q99 0 151 47t52 125v75h-193q-20 0 -20 20v28q0 20 20 20h244v0z" />
    <glyph glyph-name="H" unicode="H" horiz-adv-x="681" 
d="M584 710q19 0 19 -20v-670q0 -20 -19 -20h-33q-20 0 -20 20v306h-381v-306q0 -11 -4 -15.5t-15 -4.5h-33q-20 0 -20 20v670q0 20 20 20h33q11 0 15 -4.5t4 -15.5v-296h381v296q0 20 20 20h33v0z" />
    <glyph glyph-name="I" unicode="I" horiz-adv-x="228" 
d="M78 690q0 20 20 20h33q11 0 15 -4.5t4 -15.5v-670q0 -11 -4 -15.5t-15 -4.5h-33q-20 0 -20 20v670v0z" />
    <glyph glyph-name="J" unicode="J" horiz-adv-x="570" 
d="M478 710q20 0 20 -19v-468q0 -111 -62 -174.5t-180 -63.5q-102 0 -158.5 49.5t-77.5 137.5q-7 19 12 26l32 11q18 7 25 -13q15 -69 53.5 -106t113.5 -37q84 0 126.5 44.5t42.5 124.5v469q0 11 4 15t15 4h34v0z" />
    <glyph glyph-name="K" unicode="K" horiz-adv-x="609" 
d="M589 20q5 -8 2.5 -14t-13.5 -6h-32q-19 0 -26.5 3.5t-13.5 14.5l-111 222q-23 46 -53.5 66.5t-89.5 20.5h-102v-307q0 -11 -4 -15.5t-15 -4.5h-33q-20 0 -20 20v670q0 20 20 20h33q11 0 15 -4.5t4 -15.5v-297h96h22l224 300q8 11 15.5 14t24.5 3h36q11 0 13.5 -5.5
t-3.5 -13.5l-237 -312q43 -12 70.5 -39.5t50.5 -72.5l127 -247v0z" />
    <glyph glyph-name="L" unicode="L" horiz-adv-x="521" 
d="M131 710q11 0 15 -4.5t4 -15.5v-622h339q19 0 19 -20v-28q0 -20 -19 -20h-391q-20 0 -20 20v670q0 20 20 20h33v0z" />
    <glyph glyph-name="M" unicode="M" horiz-adv-x="800" 
d="M703 710q20 0 20 -20v-670q0 -20 -20 -20h-30q-20 0 -20 20l1 408q0 41 2.5 85t9.5 92h-4q-19 -45 -37.5 -81.5t-39.5 -74.5l-152 -268q-5 -9 -9.5 -12t-13.5 -3h-20q-9 0 -14 2.5t-10 12.5l-154 271q-22 37 -38.5 72.5t-34.5 81.5h-4q6 -50 8.5 -93t2.5 -86v-407
q0 -20 -20 -20h-28q-20 0 -20 20v670q0 20 20 20h26q12 0 17.5 -3.5t10.5 -12.5l248 -439l246 438q6 11 11 14t17 3h29v0z" />
    <glyph glyph-name="N" unicode="N" horiz-adv-x="691" 
d="M593 710q20 0 20 -20v-670q0 -20 -20 -20h-32q-8 0 -12.5 2t-8.5 9l-319 458q-14 21 -26 42.5t-22 41t-18 35.5t-14 24h-4q0 -11 1.5 -29.5t4 -42t4 -50.5t1.5 -55v-415q0 -20 -19 -20h-31q-20 0 -20 20v670q0 20 20 20h32q9 0 13.5 -2.5t7.5 -7.5l311 -449
q15 -23 28.5 -46t24.5 -43t20 -36.5t16 -25.5h3q0 12 -2 31.5t-4 44t-4 52.5t-2 58v405q0 19 20 19h31v0z" />
    <glyph glyph-name="O" unicode="O" horiz-adv-x="663" 
d="M57 473q0 118 70 184.5t205 66.5q134 0 204 -66.5t70 -184.5v-236q0 -118 -70 -184.5t-204 -66.5q-135 0 -205 66.5t-70 184.5v236zM534 473q0 88 -51.5 136t-150.5 48q-100 0 -151.5 -48t-51.5 -136v-236q0 -88 51.5 -136t151.5 -48q99 0 150.5 48t51.5 136v236z" />
    <glyph glyph-name="P" unicode="P" horiz-adv-x="622" 
d="M365 710q105 0 165.5 -58.5t60.5 -163.5t-60.5 -163t-165.5 -58h-215v-247q0 -11 -4 -15.5t-15 -4.5h-33q-20 0 -20 20v670q0 20 20 20h267zM359 334q73 0 115 40.5t42 113.5t-42 113.5t-115 40.5h-209v-308h209z" />
    <glyph glyph-name="Q" unicode="Q" horiz-adv-x="675" 
d="M617 -15q7 -8 6.5 -14t-8.5 -14l-22 -18q-15 -14 -28 2l-72 85q-61 -40 -161 -40q-135 0 -205 66.5t-70 184.5v236q0 118 70 184.5t205 66.5q134 0 204 -66.5t70 -184.5v-236q0 -105 -58 -171zM129 237q0 -88 51.5 -136t151.5 -48q99 0 150.5 48t51.5 136v236
q0 88 -51.5 136t-150.5 48q-100 0 -151.5 -48t-51.5 -136v-236z" />
    <glyph glyph-name="R" unicode="R" horiz-adv-x="644" 
d="M381 710q99 0 154.5 -54t55.5 -153q0 -84 -43 -134t-118 -62q23 -11 37.5 -27.5t27.5 -41.5l112 -218q5 -8 3 -14t-13 -6h-33q-18 0 -26 3.5t-13 14.5l-97 193q-23 46 -53.5 66.5t-89.5 20.5h-135v-278q0 -11 -4 -15.5t-15 -4.5h-33q-20 0 -20 20v670q0 20 20 20h283z
M516 503q0 67 -36.5 103t-105.5 36h-224v-276h224q67 0 104.5 35.5t37.5 101.5z" />
    <glyph glyph-name="S" unicode="S" horiz-adv-x="626" 
d="M52 519q0 46 17 84t50 65t81 41.5t110 14.5q103 0 164 -37.5t99 -116.5q5 -10 2.5 -15.5t-13.5 -10.5l-31 -14q-10 -5 -15 -3t-11 12q-29 58 -74 87t-121 29q-89 0 -136.5 -34t-47.5 -98q0 -39 17.5 -62.5t46.5 -37t66 -20.5t77 -11q45 -5 90 -14t80.5 -29.5t58 -56.5
t22.5 -96q0 -99 -69 -154.5t-203 -55.5q-109 0 -173 42.5t-98 129.5q-4 11 -1.5 16.5t13.5 10.5l31 11q11 4 16 1.5t10 -13.5q28 -66 77.5 -98t124.5 -32q199 0 199 140q0 38 -16.5 61.5t-43.5 37t-62 19.5t-73 10q-47 5 -94 14t-84.5 29t-61.5 56.5t-24 97.5z" />
    <glyph glyph-name="T" unicode="T" horiz-adv-x="543" 
d="M510 710q20 0 20 -20v-28q0 -20 -20 -20h-202v-622q0 -20 -20 -20h-33q-20 0 -20 20v622h-202q-20 0 -20 20v28q0 20 20 20h477v0z" />
    <glyph glyph-name="U" unicode="U" horiz-adv-x="682" 
d="M145 241q0 -87 48.5 -137.5t147.5 -50.5t147.5 50.5t48.5 137.5v449q0 20 20 20h33q20 0 20 -20v-448q0 -59 -17 -106t-50.5 -81t-84 -52t-117.5 -18t-117.5 18t-84 52t-50.5 81t-17 106v448q0 20 20 20h33q20 0 20 -20v-449v0z" />
    <glyph glyph-name="V" unicode="V" horiz-adv-x="622" 
d="M597 710q19 0 13 -19l-258 -674q-7 -17 -26 -17h-30q-19 0 -26 16l-257 675q-8 19 13 19h29q18 0 25 -3.5t11 -14.5l196 -525q8 -24 14.5 -48t9.5 -32h3q3 8 9 31.5t14 48.5l196 525q3 11 10.5 14.5t24.5 3.5h29v0z" />
    <glyph glyph-name="W" unicode="W" horiz-adv-x="881" 
d="M844 710q11 0 13.5 -4.5t-0.5 -14.5l-178 -674q-3 -11 -9 -14t-17 -3h-31q-11 0 -17.5 3t-8.5 13l-133 484q-6 23 -11 48.5t-9 49.5h-4q-3 -24 -8.5 -49t-11.5 -48l-135 -484q-3 -11 -8.5 -14t-16.5 -3h-32q-11 0 -17 3t-8 13l-179 675q-2 10 0 14.5t13 4.5h40
q13 0 18.5 -3.5t8.5 -14.5l122 -483q3 -11 5.5 -26.5t4.5 -30.5t4 -28.5t4 -21.5h4q1 9 3.5 22t5 28t6 30t6.5 27l133 472q3 11 9.5 14.5t17.5 3.5h31q11 0 17.5 -3.5t9.5 -14.5l131 -473q8 -26 13.5 -57.5t8.5 -48.5h4q1 7 3 20t4.5 28l5 30t5.5 27l122 485q2 11 8 14.5
t18 3.5h35v0z" />
    <glyph glyph-name="X" unicode="X" horiz-adv-x="617" 
d="M600 21q6 -8 4 -14.5t-14 -6.5h-40q-17 0 -24 2.5t-14 15.5l-206 287l-203 -287q-8 -12 -14.5 -15t-23.5 -3h-38q-11 0 -13 6.5t4 14.5l244 340l-237 330q-5 8 -2.5 13.5t12.5 5.5h40q17 0 23.5 -3t14.5 -14l196 -275l197 275q8 11 14 14t22 3h40q10 0 12.5 -5.5
t-2.5 -13.5l-238 -330l246 -340v0z" />
    <glyph glyph-name="Y" unicode="Y" horiz-adv-x="627" 
d="M601 710q11 0 13 -6t-3 -14l-261 -402v-268q0 -20 -20 -20h-33q-20 0 -20 20v269l-261 401q-5 8 -3 14t13 6h41q17 0 24 -2.5t14 -15.5l209 -329l211 329q7 13 14 15.5t24 2.5h38v0z" />
    <glyph glyph-name="Z" unicode="Z" horiz-adv-x="566" 
d="M506 710q20 0 20 -20v-27q0 -8 -1.5 -12.5t-5.5 -9.5l-396 -573h393q20 0 20 -19v-29q0 -20 -20 -20h-464q-19 0 -19 20v27q0 8 1 13t6 10l395 572h-378q-20 0 -20 20v28q0 20 20 20h449v0z" />
    <glyph glyph-name="bracketleft" unicode="[" horiz-adv-x="272" 
d="M239 856q11 0 14 -3.5t3 -14.5v-25q0 -11 -3 -14.5t-14 -3.5h-107v-880h107q11 0 14 -3t3 -14v-26q0 -11 -3 -14.5t-14 -3.5h-154q-11 0 -14.5 3.5t-3.5 14.5v966q0 11 3.5 14.5t14.5 3.5h154v0z" />
    <glyph glyph-name="backslash" unicode="\" horiz-adv-x="408" 
d="M32 693q-6 17 12 17h34q11 0 15.5 -3.5t8.5 -13.5l274 -736q3 -9 1 -13t-13 -4h-34q-11 0 -15.5 3.5t-8.5 13.5l-274 736v0z" />
    <glyph glyph-name="bracketright" unicode="]" horiz-adv-x="272" 
d="M187 856q11 0 14.5 -3.5t3.5 -14.5v-966q0 -11 -3.5 -14.5t-14.5 -3.5h-153q-11 0 -14.5 3.5t-3.5 14.5v26q0 11 3.5 14t14.5 3h106v880h-106q-11 0 -14.5 3.5t-3.5 14.5v25q0 11 3.5 14.5t14.5 3.5h153v0z" />
    <glyph glyph-name="asciicircum" unicode="^" horiz-adv-x="592" 
d="M304 810q11 0 14.5 -4l10.5 -12l208 -252q19 -22 -10 -22h-30q-17 0 -22.5 2.5t-13.5 13.5l-165 205h-4l-164 -205q-8 -11 -14 -13.5t-22 -2.5h-28q-27 0 -10 22l206 252q7 8 12 12t13 4h19v0z" />
    <glyph glyph-name="underscore" unicode="_" horiz-adv-x="506" 
d="M459 0q20 0 20 -20v-25q0 -20 -20 -20h-413q-19 0 -19 20v25q0 20 19 20h413v0z" />
    <glyph glyph-name="grave" unicode="`" horiz-adv-x="257" 
d="M40 724q8 9 16 7.5t17 -6.5l162 -100q8 -5 8 -8.5t-6 -11.5l-10 -12q-7 -8 -23 -1l-176 93q-10 4 -10 8.5t7 12.5l15 18v0z" />
    <glyph glyph-name="a" unicode="a" horiz-adv-x="512" 
d="M54 424q26 50 75.5 77.5t125.5 27.5q60 0 98.5 -16t61 -43t31.5 -63t9 -76v-262q0 -26 -7.5 -37t-28.5 -20q-28 -12 -68.5 -19t-97.5 -7q-65 0 -107 10t-66 30t-33.5 48.5t-9.5 66.5q0 43 12.5 72.5t39 48t68 26.5t100.5 8q45 0 81 -4t50 -6v46q0 29 -6 54t-21 43.5
t-41 29t-67 10.5q-53 0 -86.5 -19t-53.5 -54q-6 -8 -10.5 -10.5t-14.5 2.5l-24 10q-19 7 -10 26zM388 231q-8 1 -22 2.5t-32.5 3t-40 2.5t-43.5 1q-81 0 -112.5 -23.5t-31.5 -74.5q0 -24 5.5 -42.5t21.5 -31t43.5 -19.5t71.5 -7q42 0 71 4t50 12q11 5 15 10t4 19v144z" />
    <glyph glyph-name="b" unicode="b" horiz-adv-x="537" 
d="M114 740q10 0 14 -3.5t4 -14.5v-224q20 7 61.5 19t96.5 12q103 0 150 -51.5t47 -144.5v-142q0 -100 -52.5 -152.5t-162.5 -52.5q-57 0 -100 9t-69 21q-24 11 -31.5 20.5t-7.5 34.5v651q0 11 4 14.5t14 3.5h32zM420 331q0 66 -34 101t-105 35q-51 0 -91 -12t-58 -20v-342
q0 -12 2.5 -16.5t15.5 -9.5q20 -8 50 -14t67 -6q79 0 116 36.5t37 108.5v139z" />
    <glyph glyph-name="c" unicode="c" horiz-adv-x="515" 
d="M49 332q0 91 53.5 144t164.5 53q92 0 141 -36.5t68 -98.5q4 -11 1 -16.5t-13 -9.5l-26 -9q-11 -4 -16 -1t-9 13q-16 50 -49.5 74t-98.5 24q-75 0 -112 -36t-37 -99v-153q0 -63 37.5 -99.5t111.5 -36.5q63 0 98 26t51 77q5 11 10 13t16 -1l26 -8q10 -4 13.5 -9.5
t-1.5 -16.5q-23 -69 -74 -104.5t-141 -35.5q-108 0 -161 52.5t-53 144.5v149v0z" />
    <glyph glyph-name="d" unicode="d" horiz-adv-x="537" 
d="M50 329q0 95 48 147.5t149 52.5q56 0 97 -11t61 -18v222q0 11 4 14.5t14 3.5h31q11 0 14.5 -3.5t3.5 -14.5v-652q0 -24 -7.5 -34t-31.5 -20q-29 -12 -71 -21t-102 -9q-109 0 -159.5 51.5t-50.5 148.5v143zM405 437q-17 7 -55 18.5t-91 11.5q-74 0 -108 -35.5t-34 -104.5
v-140q0 -140 149 -140q38 0 68.5 5.5t51.5 13.5q13 5 16 10t3 16v345z" />
    <glyph glyph-name="e" unicode="e" horiz-adv-x="530" 
d="M47 318q0 100 56 155.5t165 55.5q56 0 98 -15.5t69.5 -43t41 -65.5t13.5 -83v-55q0 -13 -6.5 -20.5t-23.5 -7.5h-346v-58q0 -64 37.5 -100.5t112.5 -36.5q62 0 99 22.5t58 60.5q7 9 13 10.5t16 -3.5l21 -11q19 -10 7 -29q-26 -47 -77 -77.5t-137 -30.5q-56 0 -97 14.5
t-67.5 41.5t-39.5 64t-13 82v130zM423 326q0 67 -38.5 106t-116.5 39q-77 0 -115.5 -39t-38.5 -106v-35h309v35z" />
    <glyph glyph-name="f" unicode="f" horiz-adv-x="353" 
d="M325 740q11 0 14.5 -3.5t3.5 -14.5v-26q0 -11 -3.5 -15t-14.5 -4q-41 0 -68 -6.5t-44 -22.5t-24 -42.5t-7 -66.5v-25h145q11 0 14.5 -3.5t3.5 -14.5v-26q0 -10 -3.5 -14t-14.5 -4h-145v-434q0 -11 -3.5 -14.5t-14.5 -3.5h-31q-10 0 -14 3.5t-4 14.5v434h-89
q-11 0 -14.5 4t-3.5 14v26q0 11 3.5 14.5t14.5 3.5h89v25q0 54 11.5 91.5t35.5 61.5t62.5 35.5t92.5 12.5h8v0z" />
    <glyph glyph-name="g" unicode="g" horiz-adv-x="536" 
d="M49 324q0 100 52.5 152.5t163.5 52.5q56 0 99 -9.5t70 -20.5q12 -5 19.5 -9.5t11.5 -10.5t5.5 -14.5t1.5 -20.5v-475q0 -49 -11.5 -88.5t-37 -68t-65.5 -44t-97 -15.5q-80 0 -126.5 30t-71.5 77q-13 19 7 30l22 11q11 6 17 4t12 -11q20 -36 50.5 -58t87.5 -22
q78 0 112 40t34 112v62q-20 -8 -62 -19t-96 -11q-103 0 -150.5 51.5t-47.5 143.5v131zM386 448q-20 8 -50 13.5t-67 5.5q-78 0 -115 -36t-37 -108v-128q0 -66 33.5 -100.5t104.5 -34.5q54 0 93 11t57 18v333q0 12 -3 16.5t-16 9.5z" />
    <glyph glyph-name="h" unicode="h" horiz-adv-x="551" 
d="M116 740q11 0 14.5 -3.5t3.5 -14.5v-221q23 11 63.5 19.5t93.5 8.5q103 0 151 -51t48 -145v-315q0 -11 -4 -14.5t-14 -3.5h-32q-10 0 -14 3.5t-4 14.5v313q0 66 -34 101t-106 35q-47 0 -85.5 -8.5t-62.5 -20.5v-420q0 -11 -3.5 -14.5t-14.5 -3.5h-31q-11 0 -14.5 3.5
t-3.5 14.5v704q0 11 3.5 14.5t14.5 3.5h31v0z" />
    <glyph glyph-name="i" unicode="i" horiz-adv-x="200" 
d="M103 698q21 0 29 -8t8 -29v-7q0 -21 -8 -29t-29 -8h-6q-21 0 -29 8t-8 29v7q0 21 8 29t29 8h6zM116 514q10 0 14 -3.5t4 -14.5v-478q0 -11 -4 -14.5t-14 -3.5h-32q-10 0 -14 3.5t-4 14.5v478q0 11 4 14.5t14 3.5h32z" />
    <glyph glyph-name="j" unicode="j" horiz-adv-x="201" 
d="M103 698q22 0 30 -8t8 -29v-7q0 -21 -8 -29t-30 -8h-5q-22 0 -30 8t-8 29v7q0 21 8 29t30 8h5zM116 514q11 0 14.5 -3.5t3.5 -14.5v-505q0 -53 -11 -94t-36 -69t-64.5 -43t-96.5 -15q-11 0 -14.5 3.5t-3.5 14.5v26q0 11 3.5 15t14.5 4q41 0 68 11t43.5 31t23 49.5
t6.5 67.5v504q0 11 3.5 14.5t14.5 3.5h31z" />
    <glyph glyph-name="k" unicode="k" horiz-adv-x="507" 
d="M483 21q5 -11 3.5 -16t-14.5 -5h-30q-15 0 -20.5 3t-10.5 13l-76 156q-15 32 -37 46.5t-60 14.5h-104v-214q0 -11 -4 -15t-15 -4h-29q-11 0 -15 4t-4 15v703q0 11 4 14.5t15 3.5h29q11 0 15 -3.5t4 -14.5v-427h96h9l161 205q8 11 14 12.5t21 1.5h28q27 0 12 -21
l-169 -211q31 -8 50.5 -28t36.5 -53l90 -180v0z" />
    <glyph glyph-name="l" unicode="l" horiz-adv-x="207" 
d="M137 18q0 -11 -3.5 -14.5t-14.5 -3.5h-31q-11 0 -14.5 3.5t-3.5 14.5v704q0 11 3.5 14.5t14.5 3.5h31q11 0 14.5 -3.5t3.5 -14.5v-704v0z" />
    <glyph glyph-name="m" unicode="m" horiz-adv-x="817" 
d="M391 486q8 4 24 11t38.5 14t52.5 12.5t66 5.5q96 0 139.5 -48.5t43.5 -141.5v-321q0 -11 -3.5 -14.5t-14.5 -3.5h-31q-11 0 -14.5 3.5t-3.5 14.5v318q0 131 -124 131q-51 0 -86.5 -13t-49.5 -21q19 -37 19 -94v-321q0 -11 -3.5 -14.5t-14.5 -3.5h-31q-11 0 -14.5 3.5
t-3.5 14.5v318q0 131 -127 131q-34 0 -58 -5t-47 -15q-11 -5 -13.5 -12t-2.5 -15v-402q0 -11 -4 -14.5t-14 -3.5h-32q-10 0 -14 3.5t-4 14.5v422q0 23 7.5 35t30.5 22q27 12 65 22t95 10q84 0 129 -43z" />
    <glyph glyph-name="n" unicode="n" 
d="M102 495q29 12 73.5 23t112.5 11q104 0 151.5 -51.5t47.5 -144.5v-315q0 -11 -4 -14.5t-14 -3.5h-31q-11 0 -14.5 3.5t-3.5 14.5v313q0 68 -34 102t-106 34q-43 0 -76.5 -7t-56.5 -15q-10 -5 -12.5 -11t-2.5 -14v-402q0 -11 -4 -14.5t-14 -3.5h-32q-10 0 -14 3.5t-4 14.5
v422q0 23 7.5 34t30.5 21z" />
    <glyph glyph-name="o" unicode="o" horiz-adv-x="539" 
d="M50 345q0 86 58 135t161 49q104 0 162.5 -49t58.5 -135v-176q0 -86 -58.5 -134.5t-162.5 -48.5q-103 0 -161 48.5t-58 134.5v176zM422 345q0 58 -41 90.5t-112 32.5q-69 0 -110.5 -32.5t-41.5 -90.5v-176q0 -57 41.5 -89.5t110.5 -32.5q71 0 112 32.5t41 89.5v176z" />
    <glyph glyph-name="p" unicode="p" horiz-adv-x="537" 
d="M104 500q29 11 71.5 20t103.5 9q108 0 158 -51.5t50 -148.5v-144q0 -96 -49.5 -147.5t-155.5 -51.5q-52 0 -91.5 13t-58.5 21v-222q0 -11 -4 -14.5t-14 -3.5h-32q-10 0 -14 3.5t-4 14.5v646q0 25 8 35.5t32 20.5zM420 327q0 140 -149 140q-39 0 -69 -5.5t-51 -13.5
q-13 -5 -16 -10t-3 -17v-339q9 -4 23.5 -10t33 -11.5t41 -9.5t47.5 -4q75 0 109 35.5t34 104.5v140z" />
    <glyph glyph-name="q" unicode="q" horiz-adv-x="537" 
d="M265 529q57 0 100 -9.5t69 -20.5q12 -5 19.5 -9.5t11.5 -10.5t5.5 -14.5t1.5 -20.5v-646q0 -11 -3.5 -14.5t-14.5 -3.5h-31q-10 0 -14 3.5t-4 14.5v223q-10 -4 -26 -10t-36 -11.5t-44.5 -9.5t-51.5 -4q-102 0 -149.5 51.5t-47.5 143.5v143q0 100 52.5 152.5t162.5 52.5z
M117 182q0 -65 34 -100t105 -35q25 0 48.5 4t42.5 9.5t34 11.5t24 10v339q0 12 -3 17t-17 10q-20 8 -49 13.5t-67 5.5q-78 0 -115 -36t-37 -108v-141z" />
    <glyph glyph-name="r" unicode="r" horiz-adv-x="342" 
d="M314 529q11 0 14.5 -4t3.5 -14v-26q0 -10 -3.5 -14t-14.5 -4h-33q-43 0 -76 -6.5t-56 -14.5q-12 -5 -14.5 -11.5t-2.5 -14.5v-402q0 -11 -4 -14.5t-14 -3.5h-32q-10 0 -14 3.5t-4 14.5v424q0 23 7.5 34.5t30.5 21.5q28 11 71.5 20t109.5 11h31z" />
    <glyph glyph-name="s" unicode="s" horiz-adv-x="496" 
d="M46 379q0 69 49 109.5t148 40.5q86 0 134 -30t70 -79q10 -18 -9 -26l-25 -11q-11 -5 -15.5 -2.5t-9.5 11.5q-8 17 -19 31t-28 24t-40.5 15.5t-56.5 5.5q-131 0 -131 -87q0 -30 11 -47t31.5 -26.5t48 -13.5t60.5 -7q41 -4 76.5 -11.5t62 -23.5t41.5 -43t15 -70
q0 -70 -50.5 -111.5t-154.5 -41.5q-83 0 -137 29.5t-79 94.5q-8 18 11 24l26 9q9 3 14 1t10 -12q18 -48 56 -67.5t97 -19.5q72 0 106.5 23.5t34.5 67.5q0 27 -10.5 43t-29.5 26t-45.5 15t-59.5 8q-38 4 -74 10t-64.5 21.5t-46 43.5t-17.5 76z" />
    <glyph glyph-name="t" unicode="t" horiz-adv-x="359" 
d="M167 634q11 0 14.5 -3.5t3.5 -14.5v-102h145q10 0 14 -3.5t4 -14.5v-26q0 -18 -18 -18h-145v-260q0 -45 7 -72.5t24 -43t44 -21t68 -5.5q11 0 14.5 -4t3.5 -15v-27q0 -11 -3.5 -14.5t-14.5 -3.5q-58 -1 -98 8t-65 32.5t-36 63.5t-11 100v262h-95q-18 0 -18 18v26
q0 11 4 14.5t14 3.5h95v102q0 11 4 14.5t14 3.5h31v0z" />
    <glyph glyph-name="u" unicode="u" 
d="M467 514q9 0 13.5 -3.5t4.5 -14.5v-422q0 -23 -7.5 -34t-30.5 -21q-29 -12 -73.5 -22.5t-113.5 -10.5q-103 0 -150.5 51t-47.5 144v315q0 11 3.5 14.5t14.5 3.5h31q11 0 14.5 -3.5t3.5 -14.5v-312q0 -68 33.5 -102.5t106.5 -34.5q43 0 75 6.5t55 15.5q12 5 15 11.5
t3 16.5v399q0 11 4 14.5t14 3.5h32v0z" />
    <glyph glyph-name="v" unicode="v" horiz-adv-x="504" 
d="M473 514q13 0 16 -4t-2 -16l-200 -480q-5 -10 -9.5 -13.5t-15.5 -3.5h-19q-19 0 -26 17l-200 479q-5 13 -2 17t17 4h23q16 0 21.5 -3.5t9.5 -14.5l137 -330q10 -26 17 -51.5t11 -35.5h3q4 9 10.5 34.5t16.5 51.5l136 331q4 11 9.5 14.5t22.5 3.5h24v0z" />
    <glyph glyph-name="w" unicode="w" horiz-adv-x="731" 
d="M692 514q14 0 16.5 -4.5t-1.5 -16.5l-148 -480q-4 -16 -24 -16h-21q-20 0 -25 16l-103 327q-8 27 -12.5 51t-7.5 34h-3q-3 -10 -7.5 -34t-12.5 -51l-103 -327q-3 -10 -8 -13t-16 -3h-21q-10 0 -15.5 3t-8.5 13l-147 480q-4 12 -1.5 16.5t16.5 4.5h23q16 0 22.5 -3.5
t8.5 -14.5l91 -310q4 -14 7 -29.5t6 -30t5 -26.5t4 -18h3q2 6 4.5 18t5.5 26.5t7 30.5t8 30l96 298q3 11 8 14.5t21 3.5h15q15 0 20 -3.5t9 -14.5l95 -295q10 -32 15.5 -63.5t10.5 -44.5h3q4 12 9 43t14 63l90 308q3 12 9 15t23 3h20v0z" />
    <glyph glyph-name="x" unicode="x" horiz-adv-x="487" 
d="M445 514q26 0 12 -20l-171 -230l182 -244q14 -20 -13 -20h-30q-14 0 -19.5 2.5t-12.5 12.5l-150 201l-149 -201q-6 -10 -12 -12.5t-20 -2.5h-28q-16 0 -18.5 5t5.5 15l182 244l-174 230q-6 9 -4 14.5t18 5.5h28q14 0 20 -2.5t13 -12.5l140 -186l140 186q7 10 12 12.5
t19 2.5h30v0z" />
    <glyph glyph-name="y" unicode="y" horiz-adv-x="551" 
d="M467 514q10 0 14 -3.5t4 -14.5v-527q0 -49 -12 -88.5t-37.5 -68t-66 -44t-97.5 -15.5q-80 0 -127 30t-72 77q-12 20 7 30l22 11q11 6 17 4t12 -11q20 -36 51.5 -58t88.5 -22q77 0 111.5 40t34.5 112v59q-26 -8 -63 -17t-94 -9q-103 0 -150.5 51t-47.5 144v302
q0 11 3.5 14.5t14.5 3.5h31q11 0 14.5 -3.5t3.5 -14.5v-299q0 -68 33.5 -102.5t106.5 -34.5q51 0 88 9.5t60 17.5v409q0 11 4 14.5t14 3.5h32v0z" />
    <glyph glyph-name="z" unicode="z" horiz-adv-x="455" 
d="M407 61q10 0 14 -3.5t4 -14.5v-25q0 -11 -4 -14.5t-14 -3.5h-358q-11 0 -14.5 3.5t-3.5 14.5v25q0 8 0.5 11t5.5 9l297 390h-282q-17 0 -17 18v25q0 11 3.5 14.5t13.5 3.5h350q11 0 14.5 -3.5t3.5 -14.5v-25q0 -7 -1 -11t-6 -10l-297 -389h291v0z" />
    <glyph glyph-name="braceleft" unicode="{" horiz-adv-x="320" 
d="M288 856q10 0 14 -3.5t4 -14.5v-26q0 -18 -18 -18h-45q-35 0 -50 -17.5t-15 -52.5v-249q0 -92 -68 -121q37 -14 52.5 -44t15.5 -78v-247q0 -35 15 -52.5t50 -17.5h45q18 0 18 -18v-26q0 -11 -4 -14.5t-14 -3.5h-46q-71 0 -100 31t-29 97v242q0 45 -17.5 70.5t-64.5 25.5
h-10q-15 0 -15 18v33q0 18 15 18h10q47 0 64.5 25.5t17.5 70.5v243q0 66 28.5 97.5t99.5 31.5h47v0z" />
    <glyph glyph-name="bar" unicode="|" horiz-adv-x="199" 
d="M113 856q11 0 14.5 -3.5t3.5 -14.5v-967q0 -11 -3.5 -14.5t-14.5 -3.5h-28q-10 0 -14 3.5t-4 14.5v967q0 11 4 14.5t14 3.5h28v0z" />
    <glyph glyph-name="braceright" unicode="}" horiz-adv-x="320" 
d="M79 856q71 0 99.5 -31.5t28.5 -97.5v-243q0 -45 17.5 -70.5t64.5 -25.5h10q15 0 15 -18v-33q0 -18 -15 -18h-10q-47 0 -64.5 -25.5t-17.5 -70.5v-242q0 -66 -29 -97t-100 -31h-46q-10 0 -14 3.5t-4 14.5v26q0 18 18 18h45q35 0 50 17.5t15 52.5v247q0 48 15.5 78t52.5 44
q-68 29 -68 121v249q0 35 -15 52.5t-50 17.5h-45q-18 0 -18 18v26q0 11 4 14.5t14 3.5h47v0z" />
    <glyph glyph-name="asciitilde" unicode="~" horiz-adv-x="560" 
d="M69 325q26 23 54 36t65 13q30 0 52.5 -6.5t42.5 -14t39.5 -14t43.5 -6.5q26 0 45.5 9.5t36.5 24.5q8 8 13 7.5t13 -8.5l19 -17q15 -15 0 -28q-26 -23 -54.5 -36t-65.5 -13q-30 0 -52 6.5t-42 14t-39.5 14t-43.5 6.5q-26 0 -45 -9t-37 -25q-8 -8 -13 -7.5t-13 8.5l-19 17
q-8 8 -8 14t8 14z" />
    <glyph glyph-name="exclamdown" unicode="&#xa1;" horiz-adv-x="196" 
d="M95 432q-23 0 -31 8.5t-8 31.5v6q0 23 8 31.5t31 8.5h6q23 0 31.5 -8.5t8.5 -31.5v-6q0 -23 -8.5 -31.5t-31.5 -8.5h-6zM81 -228q-18 0 -18 18l8 536q1 18 18 18h18q11 0 14.5 -4t3.5 -14l9 -536q0 -18 -18 -18h-35z" />
    <glyph glyph-name="cent" unicode="&#xa2;" horiz-adv-x="534" 
d="M472 152q10 -4 13.5 -9.5t-1.5 -16.5q-20 -62 -63 -96.5t-116 -40.5v-55q0 -11 -4 -14.5t-14 -3.5h-32q-10 0 -14 3.5t-4 14.5v54q-91 7 -137 58.5t-46 136.5v149q0 83 45 134.5t138 59.5v66q0 11 4 14.5t14 3.5h32q10 0 14 -3.5t4 -14.5v-66q77 -6 118.5 -41t58.5 -91
q4 -11 1 -16.5t-13 -9.5l-26 -9q-11 -4 -16 -1t-10 13q-15 50 -49 74t-99 24q-75 0 -111.5 -36t-36.5 -99v-153q0 -63 37.5 -99.5t110.5 -36.5q63 0 98.5 26t51.5 77q4 11 9 13t16 -1l27 -8v0z" />
    <glyph glyph-name="sterling" unicode="&#xa3;" horiz-adv-x="635" 
d="M138 533q0 39 13 73.5t39.5 61t67 41.5t96.5 15q89 0 144.5 -36.5t84.5 -117.5q4 -11 1 -16t-14 -9l-30 -11q-11 -5 -16 -1.5t-10 13.5q-24 62 -61.5 86.5t-96.5 24.5q-37 0 -64 -10t-44 -27t-25.5 -40t-8.5 -50v-160h257q20 0 20 -20v-24q0 -19 -20 -19h-257v-136
q0 -34 -12 -61.5t-38 -45.5v-3q23 2 56 4.5t73 2.5h268q20 0 20 -20v-28q0 -20 -20 -20h-503q-11 0 -15 4.5t-4 15.5v29q0 16 12 16h17q20 2 33.5 12t21.5 24.5t11.5 32.5t3.5 36v137h-71q-11 0 -15 4t-4 15v24q0 11 4 15.5t15 4.5h71v163v0z" />
    <glyph glyph-name="currency" unicode="&#xa4;" horiz-adv-x="601" 
d="M536 150q12 -12 0 -26l-22 -21q-14 -14 -26 0l-54 53q-27 -22 -61.5 -34.5t-72.5 -12.5q-37 0 -71 12t-62 34l-53 -54q-14 -14 -26 0l-22 22q-13 12 0 25l54 55q-22 27 -34.5 61t-12.5 72t12 72t34 61l-54 54q-12 14 0 26l22 22q12 12 25 0l54 -54q28 22 62 34t72 12
q76 0 133 -45l53 54q14 12 26 0l22 -22q12 -13 0 -25l-53 -54q22 -28 34 -62.5t12 -72.5q0 -76 -45 -133zM300 501q-34 0 -64 -12.5t-52.5 -35t-35.5 -52.5t-13 -64q0 -35 13 -65t35.5 -52.5t52.5 -35.5t64 -13q35 0 65 13t52.5 35.5t35 52.5t12.5 65q0 34 -12.5 64
t-35 52.5t-52.5 35t-65 12.5z" />
    <glyph glyph-name="yen" unicode="&#xa5;" horiz-adv-x="638" 
d="M597 710q11 0 13 -6t-3 -14l-224 -340h123q17 0 17 -18v-18q0 -18 -17 -18h-151v-91h151q17 0 17 -18v-18q0 -18 -17 -18h-151v-131q0 -20 -19 -20h-33q-20 0 -20 20v131h-152q-17 0 -17 18v18q0 18 17 18h152v91h-152q-17 0 -17 18v18q0 18 17 18h126l-225 340
q-5 8 -3 14t13 6h36q17 0 24 -2.5t14 -15.5l205 -318l204 318q7 13 14 15.5t24 2.5h34v0z" />
    <glyph glyph-name="brokenbar" unicode="&#xa6;" horiz-adv-x="208" 
d="M118 856q10 0 14 -3.5t4 -14.5v-389q0 -11 -4 -14.5t-14 -3.5h-28q-11 0 -14.5 3.5t-3.5 14.5v389q0 11 3.5 14.5t14.5 3.5h28zM118 279q10 0 14 -3.5t4 -14.5v-389q0 -11 -4 -14.5t-14 -3.5h-28q-11 0 -14.5 3.5t-3.5 14.5v389q0 11 3.5 14.5t14.5 3.5h28z" />
    <glyph glyph-name="section" unicode="&#xa7;" horiz-adv-x="596" 
d="M60 545q0 40 14 73.5t43 58t73 38.5t105 14q92 0 151 -39.5t90 -120.5q5 -11 2.5 -17t-13.5 -11l-28 -13q-19 -8 -28 11q-45 121 -174 121q-86 0 -123.5 -31t-37.5 -84q0 -35 14.5 -55.5t39 -32t56 -17t64.5 -9.5q40 -5 81 -13t74 -26.5t54 -50.5t21 -84q0 -29 -8.5 -52
t-21.5 -41t-29 -31t-30 -22q21 -8 38.5 -20.5t30 -30t20 -42t7.5 -56.5q0 -40 -15 -74t-45.5 -58.5t-76.5 -38t-108 -13.5q-94 0 -157 41.5t-92 124.5q-7 19 13 26l29 10q11 5 16.5 2t9.5 -15q22 -63 67.5 -92t113.5 -29q90 0 131.5 31t41.5 84q0 35 -15 55.5t-39.5 32
t-56.5 16.5t-66 8q-42 4 -85.5 11t-78.5 24.5t-57 49.5t-22 87q0 32 10 56.5t25 42.5t33.5 31t35.5 21q-42 17 -69.5 51t-27.5 98zM293 363q-18 2 -35.5 4t-34.5 6q-9 -3 -25 -11t-32 -21.5t-27.5 -35t-11.5 -51.5q0 -35 15 -55.5t39.5 -32.5t57 -17t67.5 -8q19 -2 37.5 -4
t36.5 -5q8 4 22 12.5t28 23t24.5 35t10.5 48.5q0 32 -14.5 52t-38.5 32t-55 18t-64 10z" />
    <glyph glyph-name="dieresis" unicode="&#xa8;" horiz-adv-x="439" 
d="M122 687q20 0 26.5 -7t6.5 -25v-8q0 -19 -6.5 -26t-26.5 -7h-6q-19 0 -25.5 7t-6.5 26v8q0 18 6.5 25t25.5 7h6zM316 687q19 0 26 -7t7 -25v-8q0 -19 -7 -26t-26 -7h-6q-19 0 -26 7t-7 26v8q0 18 7 25t26 7h6z" />
    <glyph glyph-name="copyright" unicode="&#xa9;" horiz-adv-x="807" 
d="M45 351q0 76 28 141.5t76.5 114t114 76t141.5 27.5q75 0 140 -27.5t113.5 -76t76 -114t27.5 -141.5t-27.5 -141.5t-76 -114t-113.5 -76t-140 -27.5q-76 0 -141.5 28t-114 76.5t-76.5 114t-28 140.5zM714 351q0 66 -24 123t-65.5 98.5t-98 65.5t-121.5 24q-66 0 -123 -24
t-98.5 -65.5t-65.5 -98.5t-24 -123t24 -122.5t65.5 -98.5t98.5 -66t123 -24q65 0 121.5 24t98 66t65.5 98.5t24 122.5zM246 405q0 66 39.5 104t115.5 38q66 0 101 -25t49 -73q5 -15 -8 -19l-18 -6q-14 -6 -18 9q-11 37 -34.5 53t-71.5 16q-54 0 -80.5 -25t-26.5 -72v-115
q0 -46 26.5 -71.5t80.5 -25.5q46 0 71 17.5t36 55.5q5 14 20 9l15 -6q15 -5 10 -19q-16 -49 -51.5 -75.5t-100.5 -26.5q-75 0 -115 38t-40 104v115z" />
    <glyph glyph-name="ordfeminine" unicode="&#xaa;" horiz-adv-x="368" 
d="M64 612q20 29 51.5 43.5t69.5 14.5q36 0 60 -9t38.5 -25.5t20.5 -39t6 -50.5v-125q0 -23 -7 -33t-25 -18q-33 -15 -97 -15q-37 0 -61.5 6t-39.5 17.5t-21 27.5t-6 37q0 22 6.5 39t21.5 29t40 18t62 6q27 0 46 -1t28 -3v19q0 36 -15.5 55.5t-57.5 19.5q-26 0 -45 -10.5
t-33 -29.5q-8 -7 -19 -3l-15 8q-11 5 -12 10t4 12zM257 491q-10 2 -29.5 3.5t-47.5 1.5q-44 0 -59.5 -14t-15.5 -37q0 -24 17 -36t56 -12q26 0 40.5 2.5t22.5 6.5q10 4 13 8.5t3 15.5v61z" />
    <glyph glyph-name="guillemotleft" unicode="&#xab;" horiz-adv-x="564" 
d="M282 97q11 -11 0 -23l-21 -21q-12 -11 -24 0l-198 198q-6 7 -6 11.5t6 11.5l201 201q7 6 12 6.5t11 -6.5l20 -20q6 -7 6.5 -11.5t-6.5 -11.5l-168 -168zM511 97q11 -11 0 -23l-21 -21q-12 -11 -24 0l-198 198q-6 7 -6 11.5t6 11.5l201 201q6 6 11 6.5t12 -6.5l19 -20
q7 -7 7 -11.5t-7 -11.5l-167 -168z" />
    <glyph glyph-name="logicalnot" unicode="&#xac;" horiz-adv-x="580" 
d="M498 389q10 0 14 -3.5t4 -14.5v-213q0 -11 -4 -14.5t-14 -3.5h-32q-10 0 -14 3.5t-4 14.5v168h-367q-10 0 -14 3.5t-4 14.5v27q0 11 4 14.5t14 3.5h417v0z" />
    <glyph glyph-name="registered" unicode="&#xae;" horiz-adv-x="481" 
d="M47 516q0 40 15.5 75t42 61.5t62 42t75.5 15.5t75 -15.5t61 -42t41.5 -61.5t15.5 -75t-15.5 -75.5t-41.5 -61.5t-61 -41.5t-75 -15.5t-75.5 15.5t-62 41.5t-42 61.5t-15.5 75.5zM80 516q0 -34 12.5 -63.5t34.5 -51.5t52 -35t64 -13q33 0 62 13t51 35t34.5 51.5t12.5 63.5
t-12.5 63.5t-34.5 51.5t-51 34.5t-62 12.5q-34 0 -64 -12.5t-52 -34.5t-34.5 -51.5t-12.5 -63.5zM262 617q32 0 51 -17t19 -49q0 -25 -12 -40.5t-33 -20.5l38 -64q7 -11 -7 -11h-14q-7 0 -9 1.5t-4 5.5l-37 65h-61v-65q0 -7 -8 -7h-14q-8 0 -8 7v185q0 10 11 10h88zM261 514
q40 0 40 37t-40 37h-68v-74h68z" />
    <glyph glyph-name="macron" unicode="&#xaf;" horiz-adv-x="352" 
d="M293 676q10 0 13.5 -3t3.5 -14v-15q0 -11 -3.5 -14t-13.5 -3h-236q-10 0 -13.5 3t-3.5 14v15q0 11 4 14t13 3h236v0z" />
    <glyph glyph-name="degree" unicode="&#xb0;" horiz-adv-x="387" 
d="M345 555q0 -31 -12 -58.5t-32.5 -48.5t-48 -33t-58.5 -12q-32 0 -59.5 12t-48 32.5t-32.5 48t-12 59.5t12 59.5t32.5 48t48 32t59.5 11.5q31 0 59 -11.5t48 -32t32 -48t12 -59.5zM97 555q0 -20 7.5 -38t21 -31t31 -20.5t37.5 -7.5t37.5 7.5t31 21t21 31t7.5 37.5
t-7.5 37.5t-21 30.5t-31 20.5t-37.5 7.5t-37.5 -7.5t-31 -20.5t-21 -30.5t-7.5 -37.5z" />
    <glyph glyph-name="plusminus" unicode="&#xb1;" horiz-adv-x="638" 
d="M535 425q20 0 20 -20v-19q0 -20 -20 -20h-185v-112q0 -20 -20 -20h-22q-20 0 -20 20v112h-185q-20 0 -20 20v19q0 20 20 20h185v116q0 20 20 20h22q20 0 20 -20v-116h185zM535 181q20 0 20 -20v-19q0 -20 -20 -20h-432q-20 0 -20 20v19q0 20 20 20h432z" />
    <glyph glyph-name="uni00B2" unicode="&#xb2;" horiz-adv-x="355" 
d="M39 711l12 27t24 36t42 31t65 13q68 0 102 -34.5t34 -86.5q0 -29 -8.5 -48.5t-24 -33.5t-37 -23.5t-47.5 -18.5l-59 -19q-24 -9 -37 -24t-13 -38v-25h204q11 0 14.5 -4t3.5 -14v-18q0 -9 -3.5 -13t-14.5 -4h-240q-19 0 -19 19v39q0 48 17.5 76.5t62.5 45.5l58 23
q17 6 32 12t26.5 14t18.5 20.5t7 31.5q0 30 -19.5 49.5t-58.5 19.5q-27 0 -43 -10t-25.5 -22.5t-13.5 -23.5t-5 -14q-5 -11 -9.5 -14t-15.5 1l-17 5q-20 8 -13 25z" />
    <glyph glyph-name="uni00B3" unicode="&#xb3;" horiz-adv-x="363" 
d="M36 712q17 54 53 80t99 26q61 0 94.5 -30.5t33.5 -81.5q0 -29 -10 -51t-38 -36q32 -14 45.5 -41t13.5 -59q0 -51 -34.5 -82t-105.5 -31q-66 0 -101 27t-52 78q-4 11 -1.5 16.5t11.5 8.5l18 6q10 3 15 0.5t10 -13.5q11 -37 33 -54t67 -17q42 0 62.5 18.5t20.5 48.5
q0 27 -15.5 45.5t-44.5 18.5h-60q-11 0 -14 3.5t-3 14.5v15q0 13 3 16t15 3h55q29 0 42.5 17t13.5 42q0 31 -19.5 49t-54.5 18q-42 0 -64.5 -17t-33.5 -54q-5 -13 -11 -16.5t-19 1.5l-12 5q-9 4 -12.5 9.5t0.5 16.5z" />
    <glyph glyph-name="acute" unicode="&#xb4;" horiz-adv-x="257" 
d="M190 725q10 5 18 6.5t16 -7.5l15 -18q7 -8 7 -12.5t-10 -8.5l-176 -93q-16 -7 -24 1l-9 12q-6 8 -6 11.5t8 8.5l161 100v0z" />
    <glyph glyph-name="mu" unicode="&#xb5;" horiz-adv-x="548" 
d="M468 514q10 0 14 -3.5t4 -14.5v-422q0 -23 -7.5 -34.5t-30.5 -21.5q-32 -13 -74.5 -23t-97.5 -10q-106 0 -146 69v-256q0 -11 -3.5 -14.5t-14.5 -3.5h-31q-10 0 -14 3.5t-4 14.5v698q0 11 4 14.5t14 3.5h31q11 0 14.5 -3.5t3.5 -14.5v-313q0 -137 140 -137q43 0 75.5 7
t55.5 15q12 5 15 12t3 16v400q0 11 3.5 14.5t14.5 3.5h31v0z" />
    <glyph glyph-name="paragraph" unicode="&#xb6;" horiz-adv-x="430" 
d="M339 710q11 0 14.5 -3.5t3.5 -14.5v-763q0 -11 -3.5 -14.5t-14.5 -3.5h-27q-11 0 -14.5 3.5t-3.5 14.5v713h-54v-713q0 -11 -4 -14.5t-14 -3.5h-27q-10 0 -14 3.5t-4 14.5v508q-60 2 -96.5 39t-36.5 97q0 62 38 99.5t100 37.5h157v0z" />
    <glyph glyph-name="periodcentered" unicode="&#xb7;" horiz-adv-x="212" 
d="M109 316q23 0 31 -8.5t8 -31.5v-7q0 -23 -8 -31t-31 -8h-6q-23 0 -31.5 8t-8.5 31v7q0 23 8.5 31.5t31.5 8.5h6v0z" />
    <glyph glyph-name="cedilla" unicode="&#xb8;" horiz-adv-x="251" 
d="M127 -74q10 3 25 3q40 0 63.5 -22t21.5 -58q-3 -51 -37 -73t-82 -22q-24 0 -45.5 5.5t-34.5 13.5q-7 4 -9.5 8t-2.5 12v19q0 5 2.5 7.5t7.5 -0.5q13 -9 29 -16t45 -7q34 0 51.5 15t17.5 41q0 42 -60 42q-20 0 -33 -4q-18 -2 -11 17l36 93h42l-26 -74v0z" />
    <glyph glyph-name="uni00B9" unicode="&#xb9;" horiz-adv-x="281" 
d="M204 810q11 0 15.5 -4t4.5 -15v-357q0 -20 -20 -20h-18q-20 0 -20 20v304l-110 -61q-18 -9 -28 7l-8 14q-5 11 -2.5 16.5t11.5 10.5l140 80q9 5 24 5h11v0z" />
    <glyph glyph-name="ordmasculine" unicode="&#xba;" horiz-adv-x="373" 
d="M53 550q0 56 33.5 88t99.5 32t100 -32t34 -88v-75q0 -56 -34 -87.5t-100 -31.5t-99.5 31.5t-33.5 87.5v75zM265 553q0 32 -20 50t-59 18q-38 0 -58 -18t-20 -50v-80q0 -32 20 -50t58 -18q39 0 59 18t20 50v80z" />
    <glyph glyph-name="guillemotright" unicode="&#xbb;" horiz-adv-x="564" 
d="M281 432q-7 7 -6.5 11.5t6.5 11.5l20 20q11 13 23 0l201 -201q6 -7 6 -11.5t-6 -11.5l-198 -198q-12 -11 -24 0l-21 21q-12 12 0 23l167 167zM52 432q-11 12 0 23l20 20q7 7 12 6.5t11 -6.5l201 -201q6 -7 6 -11.5t-6 -11.5l-198 -198q-12 -11 -24 0l-21 21q-11 12 0 23
l167 167z" />
    <glyph glyph-name="onequarter" unicode="&#xbc;" horiz-adv-x="786" 
d="M217 714q20 0 20 -20v-357q0 -19 -20 -19h-18q-20 0 -20 19v305l-110 -61q-18 -11 -27 6l-8 15q-6 10 -3.5 16t11.5 11l140 79q6 3 11 4.5t13 1.5h11zM673 710q11 0 13.5 -5.5t-3.5 -13.5l-494 -673q-9 -12 -15.5 -15t-24.5 -3h-23q-11 0 -14 6t4 14l495 673q8 11 14 14
t22 3h26zM678 396q11 0 14 -3.5t3 -14.5v-227h40q11 0 14 -3t3 -13v-17q0 -10 -3 -13t-14 -3h-40v-85q0 -10 -3 -13.5t-13 -3.5h-23q-10 0 -12.5 3.5t-2.5 13.5v85h-191q-10 0 -13.5 3.5t-3.5 14.5v13q0 8 1 12t5 9l189 231q5 8 10 9.5t15 1.5h25zM641 151v173l-142 -173
h142z" />
    <glyph glyph-name="onehalf" unicode="&#xbd;" horiz-adv-x="841" 
d="M217 717q20 0 20 -19v-357q0 -20 -20 -20h-18q-20 0 -20 20v304l-110 -61q-18 -10 -28 7l-8 14q-5 11 -2.5 16.5t10.5 10.5l141 79q5 4 10.5 5t13.5 1h11zM670 710q11 0 13.5 -5.5t-3.5 -13.5l-494 -673q-9 -12 -15.5 -15t-24.5 -3h-24q-11 0 -13.5 6t4.5 14l494 673
q8 11 14.5 14t22.5 3h26zM520 297q3 9 11 27t24 36t42 31t66 13q67 0 101.5 -35t34.5 -86q0 -29 -8.5 -48.5t-24 -33.5t-37 -23.5t-47.5 -18.5l-59 -20q-24 -8 -37 -23t-13 -39v-24h204q18 0 18 -18v-18q0 -17 -18 -17h-240q-20 0 -20 19v39q0 48 17.5 76.5t62.5 45.5l59 23
q17 6 32 12t26.5 14t18.5 20.5t7 31.5q0 29 -19.5 49t-58.5 20q-27 0 -43.5 -10t-25.5 -22.5t-13 -24t-5 -14.5q-5 -11 -9.5 -14t-15.5 1l-18 6q-20 6 -12 25z" />
    <glyph glyph-name="threequarters" unicode="&#xbe;" horiz-adv-x="823" 
d="M43 619q17 54 52.5 80.5t98.5 26.5q62 0 95.5 -31t33.5 -82q0 -29 -10 -50.5t-38 -35.5q32 -15 45.5 -42t13.5 -59q0 -51 -34.5 -81.5t-105.5 -30.5q-66 0 -101 26.5t-52 77.5q-4 11 -1.5 16.5t11.5 8.5l18 6q10 3 15 0.5t10 -13.5q11 -36 32.5 -53.5t67.5 -17.5
q42 0 62.5 18.5t20.5 48.5q0 27 -15.5 46t-44.5 19h-60q-11 0 -14.5 3t-3.5 14v16q0 12 3.5 15t15.5 3h55q29 0 42 17t13 43q0 30 -19 48t-54 18q-42 0 -65 -17t-34 -54q-5 -13 -10.5 -16t-18.5 2l-13 4q-18 7 -11 26zM713 710q11 0 13.5 -5.5t-3.5 -13.5l-494 -673
q-9 -12 -15.5 -15t-24.5 -3h-23q-11 0 -14 6t4 14l495 673q8 11 14 14t22 3h26zM716 396q12 0 15 -3.5t3 -14.5v-227h40q11 0 14 -3t3 -13v-17q0 -10 -3 -13t-14 -3h-40v-85q0 -10 -3 -13.5t-13 -3.5h-23q-10 0 -13 3.5t-3 13.5v85h-190q-10 0 -13.5 3.5t-3.5 14.5v13
q0 8 0.5 12t5.5 9l188 231q6 8 11 9.5t15 1.5h24zM679 324l-141 -173h141v173z" />
    <glyph glyph-name="questiondown" unicode="&#xbf;" horiz-adv-x="553" 
d="M298 432q-23 0 -31 8.5t-8 31.5v6q0 23 8 31.5t31 8.5h6q23 0 31.5 -8.5t8.5 -31.5v-6q0 -23 -8.5 -31.5t-31.5 -8.5h-6zM524 -62q-14 -36 -36 -66.5t-52.5 -52.5t-71.5 -34t-94 -12q-57 0 -101 16t-75 44t-47 65.5t-16 80.5q0 52 14.5 88.5t36.5 62t48.5 43t51.5 33.5
q17 12 33 24.5t28.5 28t20 34.5t7.5 45q0 11 4 15t15 4h23q11 0 15 -4t4 -15q0 -38 -9 -65.5t-24.5 -48t-35 -36t-40.5 -29.5q-22 -15 -43.5 -30t-38.5 -35t-27.5 -47t-10.5 -65q0 -30 11 -56.5t32.5 -46t53 -31t72.5 -11.5q39 0 68.5 9t52 25t38.5 39t27 50q5 11 9.5 14
t15.5 -1l28 -10q11 -4 14 -9t-1 -16z" />
    <glyph glyph-name="Agrave" unicode="&#xc0;" horiz-adv-x="641" 
d="M229 891q8 9 16.5 7.5t17.5 -6.5l164 -97q13 -7 1 -20l-9 -11q-6 -9 -23 -1l-179 89q-9 4 -9.5 8.5t6.5 12.5zM629 19q8 -19 -14 -19h-29q-18 0 -25.5 3.5t-10.5 14.5l-75 190h-313l-75 -190q-3 -11 -10 -14.5t-25 -3.5h-27q-21 0 -13 19l268 677q4 11 9 14t16 3h30
q11 0 16.5 -3t9.5 -13zM335 575q-9 26 -11.5 46.5t-2.5 22.5h-5q0 -2 -2 -22.5t-10 -46.5l-121 -307h272z" />
    <glyph glyph-name="Aacute" unicode="&#xc1;" horiz-adv-x="641" 
d="M378 898q9 5 17.5 6t16.5 -8l15 -18q7 -8 6.5 -12.5t-9.5 -8.5l-176 -93q-9 -3 -14.5 -3t-9.5 5l-9 11q-12 13 1 20zM629 19q8 -19 -14 -19h-29q-18 0 -25.5 3.5t-10.5 14.5l-75 190h-313l-75 -190q-3 -11 -10 -14.5t-25 -3.5h-27q-21 0 -13 19l268 677q4 11 9 14t16 3
h30q11 0 16.5 -3t9.5 -13zM335 575q-9 26 -11.5 46.5t-2.5 22.5h-5q0 -2 -2 -22.5t-10 -46.5l-121 -307h272z" />
    <glyph glyph-name="Acircumflex" unicode="&#xc2;" horiz-adv-x="641" 
d="M326 901q11 0 16.5 -2t17.5 -14l122 -108q5 -5 4 -9.5t-13 -4.5h-27q-12 0 -18 1.5t-12 8.5l-96 82l-97 -82q-8 -7 -13 -8.5t-16 -1.5h-26q-12 0 -13 4.5t4 9.5l123 108q12 11 17.5 13.5t18.5 2.5h8zM629 19q8 -19 -14 -19h-29q-18 0 -25.5 3.5t-10.5 14.5l-75 190h-313
l-75 -190q-3 -11 -10 -14.5t-25 -3.5h-27q-21 0 -13 19l268 677q4 11 9 14t16 3h30q11 0 16.5 -3t9.5 -13zM335 575q-9 26 -11.5 46.5t-2.5 22.5h-5q0 -2 -2 -22.5t-10 -46.5l-121 -307h272z" />
    <glyph glyph-name="Atilde" unicode="&#xc3;" horiz-adv-x="641" 
d="M460 882q12 0 12 -12q0 -100 -78 -100q-26 0 -44.5 10.5t-34.5 23t-32 23t-36 10.5t-30 -14.5t-10 -40.5q0 -12 -12 -12h-20q-12 0 -12 12q0 51 20 75.5t58 24.5q27 0 46 -10.5t35 -23t31.5 -23t35.5 -10.5t30 14.5t10 40.5q0 12 11 12h20zM629 19q8 -19 -14 -19h-29
q-18 0 -25.5 3.5t-10.5 14.5l-75 190h-313l-75 -190q-3 -11 -10 -14.5t-25 -3.5h-27q-21 0 -13 19l268 677q4 11 9 14t16 3h30q11 0 16.5 -3t9.5 -13zM335 575q-9 26 -11.5 46.5t-2.5 22.5h-5q0 -2 -2 -22.5t-10 -46.5l-121 -307h272z" />
    <glyph glyph-name="Adieresis" unicode="&#xc4;" horiz-adv-x="641" 
d="M226 864q20 0 26.5 -7t6.5 -25v-8q0 -19 -6.5 -25.5t-26.5 -6.5h-6q-19 0 -26 6.5t-7 25.5v8q0 18 7 25t26 7h6zM420 864q19 0 26 -7t7 -25v-8q0 -19 -7 -25.5t-26 -6.5h-6q-19 0 -26 6.5t-7 25.5v8q0 18 7 25t26 7h6zM629 19q8 -19 -14 -19h-29q-18 0 -25.5 3.5
t-10.5 14.5l-75 190h-313l-75 -190q-3 -11 -10 -14.5t-25 -3.5h-27q-21 0 -13 19l268 677q4 11 9 14t16 3h30q11 0 16.5 -3t9.5 -13zM335 575q-9 26 -11.5 46.5t-2.5 22.5h-5q0 -2 -2 -22.5t-10 -46.5l-121 -307h272z" />
    <glyph glyph-name="Aring" unicode="&#xc5;" horiz-adv-x="641" 
d="M212 779q0 48 30 77t80 29q48 0 77.5 -29t29.5 -77q0 -35 -17 -59.5t-47 -33.5l264 -667q8 -19 -14 -19h-29q-18 0 -25.5 3.5t-10.5 14.5l-75 190h-313l-75 -190q-3 -11 -10 -14.5t-25 -3.5h-27q-21 0 -13 19l264 668q-30 10 -47 33.5t-17 58.5zM387 779q0 29 -18 47
t-47 18q-32 0 -50 -18t-18 -47t18 -47t50 -18q29 0 47 18t18 47zM335 575q-9 26 -11.5 46.5t-2.5 22.5h-5q0 -2 -2 -22.5t-10 -46.5l-121 -307h272z" />
    <glyph glyph-name="AE" unicode="&#xc6;" horiz-adv-x="831" 
d="M774 68q19 0 19 -20v-28q0 -20 -19 -20h-332q-20 0 -20 20v155h-249l-95 -157q-5 -10 -11.5 -14t-24.5 -4h-31q-21 0 -13 19l414 674q7 10 11 13.5t15 3.5h323q20 0 20 -20v-28q0 -20 -20 -20h-268v-249h223q11 0 15 -4.5t4 -15.5v-28q0 -11 -4 -15.5t-15 -4.5h-223v-257
h281zM209 235h213v354z" />
    <glyph glyph-name="Ccedilla" unicode="&#xc7;" horiz-adv-x="636" 
d="M587 186q10 -4 13 -9t-1 -16q-13 -41 -33 -72.5t-50.5 -54t-72.5 -35t-98 -13.5l-22 -60q10 3 25 3q40 0 63.5 -22t21.5 -58q-3 -51 -37 -73t-82 -22q-24 0 -45.5 5.5t-34.5 13.5q-7 4 -9.5 8t-2.5 12v19q0 5 2.5 7.5t7.5 -0.5q13 -9 29 -16t45 -7q34 0 51.5 15t17.5 41
q0 42 -60 42q-20 0 -33 -4q-18 -2 -11 17l32 79q-120 8 -183 74t-63 177v236q0 118 69.5 184.5t204.5 66.5q115 0 177.5 -43.5t88.5 -127.5q4 -11 1.5 -16.5t-13.5 -9.5l-31 -11q-11 -3 -16 -1t-10 13q-20 65 -65.5 97t-131.5 32q-100 0 -150.5 -48t-50.5 -135v-238
q0 -86 51 -134.5t150 -48.5q88 0 133.5 33.5t65.5 98.5q5 11 10 13.5t16 -0.5l31 -12v0z" />
    <glyph glyph-name="Egrave" unicode="&#xc8;" horiz-adv-x="573" 
d="M209 891q8 9 16.5 7.5t17.5 -6.5l164 -97q13 -6 2 -20l-9 -11q-5 -5 -10 -5t-14 4l-179 89q-9 4 -9 8.5t7 12.5zM503 710q19 0 19 -20v-28q0 -20 -19 -20h-353v-248h308q19 0 19 -20v-28q0 -20 -19 -20h-308v-258h366q19 0 19 -20v-28q0 -20 -19 -20h-418q-20 0 -20 20
v670q0 20 20 20h405z" />
    <glyph glyph-name="Eacute" unicode="&#xc9;" horiz-adv-x="573" 
d="M358 898q10 5 18 6t16 -8l15 -18q7 -8 7 -12.5t-10 -8.5l-176 -93q-9 -3 -14 -3t-10 5l-9 11q-11 14 2 20zM503 710q19 0 19 -20v-28q0 -20 -19 -20h-353v-248h308q19 0 19 -20v-28q0 -20 -19 -20h-308v-258h366q19 0 19 -20v-28q0 -20 -19 -20h-418q-20 0 -20 20v670
q0 20 20 20h405z" />
    <glyph glyph-name="Ecircumflex" unicode="&#xca;" horiz-adv-x="573" 
d="M306 901q11 0 16.5 -2t17.5 -14l122 -108q6 -5 4.5 -9.5t-13.5 -4.5h-27q-11 0 -17 1.5t-13 8.5l-95 82l-98 -82q-7 -7 -12 -8.5t-16 -1.5h-26q-12 0 -13.5 4.5t4.5 9.5l122 108q12 11 17.5 13.5t18.5 2.5h8zM503 710q19 0 19 -20v-28q0 -20 -19 -20h-353v-248h308
q19 0 19 -20v-28q0 -20 -19 -20h-308v-258h366q19 0 19 -20v-28q0 -20 -19 -20h-418q-20 0 -20 20v670q0 20 20 20h405z" />
    <glyph glyph-name="Edieresis" unicode="&#xcb;" horiz-adv-x="573" 
d="M207 864q19 0 25.5 -7t6.5 -25v-8q0 -19 -6.5 -25.5t-25.5 -6.5h-7q-18 0 -25 6.5t-7 25.5v8q0 18 7 25t25 7h7zM401 864q18 0 25 -7t7 -25v-8q0 -19 -7 -25.5t-25 -6.5h-6q-20 0 -27 6.5t-7 25.5v8q0 18 7 25t27 7h6zM503 710q19 0 19 -20v-28q0 -20 -19 -20h-353v-248
h308q19 0 19 -20v-28q0 -20 -19 -20h-308v-258h366q19 0 19 -20v-28q0 -20 -19 -20h-418q-20 0 -20 20v670q0 20 20 20h405z" />
    <glyph glyph-name="Igrave" unicode="&#xcc;" horiz-adv-x="228" 
d="M23 891q8 9 16.5 7.5t17.5 -6.5l164 -97q13 -6 2 -20l-9 -11q-5 -5 -10 -5t-14 4l-179 89q-9 4 -9 8.5t7 12.5zM78 690q0 20 20 20h33q20 0 20 -20v-670q0 -20 -20 -20h-33q-20 0 -20 20v670z" />
    <glyph glyph-name="Iacute" unicode="&#xcd;" horiz-adv-x="228" 
d="M172 898q9 5 17.5 6t16.5 -8l15 -18q7 -8 6.5 -12.5t-9.5 -8.5l-177 -93q-8 -3 -13.5 -3t-9.5 5l-9 11q-12 13 1 20zM78 690q0 20 20 20h33q11 0 15 -4.5t4 -15.5v-670q0 -11 -4 -15.5t-15 -4.5h-33q-20 0 -20 20v670z" />
    <glyph glyph-name="Icircumflex" unicode="&#xce;" horiz-adv-x="228" 
d="M119 901q11 0 17 -2t18 -14l122 -108q5 -5 4 -9.5t-13 -4.5h-27q-12 0 -18 1.5t-12 8.5l-96 82l-97 -82q-8 -7 -13 -8.5t-16 -1.5h-26q-12 0 -13 4.5t4 9.5l123 108q11 11 17 13.5t19 2.5h7zM78 690q0 20 20 20h33q11 0 15 -4.5t4 -15.5v-670q0 -11 -4 -15.5t-15 -4.5
h-33q-20 0 -20 20v670z" />
    <glyph glyph-name="Idieresis" unicode="&#xcf;" horiz-adv-x="228" 
d="M20 864q20 0 26.5 -7t6.5 -25v-8q0 -19 -6.5 -25.5t-26.5 -6.5h-6q-19 0 -26 6.5t-7 25.5v8q0 18 7 25t26 7h6zM214 864q19 0 26 -7t7 -25v-8q0 -19 -7 -25.5t-26 -6.5h-6q-20 0 -26.5 6.5t-6.5 25.5v8q0 18 6.5 25t26.5 7h6zM78 690q0 20 20 20h33q11 0 15 -4.5t4 -15.5
v-670q0 -11 -4 -15.5t-15 -4.5h-33q-20 0 -20 20v670z" />
    <glyph glyph-name="Eth" unicode="&#xd0;" horiz-adv-x="664" 
d="M320 710q70 0 124 -18.5t91 -52.5t56 -83t19 -110v-182q0 -61 -19 -110t-56 -83t-91 -52.5t-124 -18.5h-211q-20 0 -20 20v316h-73q-14 0 -14 14v21q0 14 14 14h73v305q0 20 20 20h211zM538 446q0 94 -55.5 145t-161.5 51h-159v-257h172q13 0 13 -14v-21q0 -14 -13 -14
h-172v-268h159q105 0 161 51t56 145v182z" />
    <glyph glyph-name="Ntilde" unicode="&#xd1;" horiz-adv-x="691" 
d="M486 882q11 0 11 -12q0 -51 -18.5 -75.5t-59.5 -24.5q-26 0 -44.5 10.5t-34.5 23t-31.5 23t-35.5 10.5t-30 -14.5t-10 -40.5q0 -12 -12 -12h-20q-12 0 -12 12q0 100 78 100q27 0 46 -10.5t35 -23t31.5 -23t35.5 -10.5t30 14.5t10 40.5q0 12 11 12h20zM593 710
q20 0 20 -20v-670q0 -20 -20 -20h-32q-8 0 -12.5 2t-8.5 9l-319 458q-14 21 -26 42.5t-22 41t-18 35.5t-14 24h-4q0 -11 1.5 -29.5t4 -42t4 -50.5t1.5 -55v-415q0 -20 -19 -20h-31q-20 0 -20 20v670q0 20 20 20h32q9 0 13.5 -2.5t7.5 -7.5l311 -449q15 -23 28.5 -46
t24.5 -43t20 -36.5t16 -25.5h3q0 12 -2 31.5t-4 44t-4 52.5t-2 58v405q0 19 20 19h31z" />
    <glyph glyph-name="Ograve" unicode="&#xd2;" horiz-adv-x="663" 
d="M241 901q8 9 16 7.5t18 -6.5l164 -97q13 -7 1 -20l-9 -11q-4 -5 -9.5 -5t-14.5 4l-178 89q-9 4 -9.5 8.5t6.5 12.5zM57 473q0 118 70 184.5t205 66.5q134 0 204 -66.5t70 -184.5v-236q0 -118 -70 -184.5t-204 -66.5q-135 0 -205 66.5t-70 184.5v236zM534 473
q0 88 -51.5 136t-150.5 48q-100 0 -151.5 -48t-51.5 -136v-236q0 -88 51.5 -136t151.5 -48q99 0 150.5 48t51.5 136v236z" />
    <glyph glyph-name="Oacute" unicode="&#xd3;" horiz-adv-x="663" 
d="M390 908q9 5 17.5 6t16.5 -8l15 -18q7 -8 6.5 -12.5t-9.5 -8.5l-177 -93q-8 -3 -13.5 -3t-9.5 5l-9 11q-12 13 1 20zM57 473q0 118 70 184.5t205 66.5q134 0 204 -66.5t70 -184.5v-236q0 -118 -70 -184.5t-204 -66.5q-135 0 -205 66.5t-70 184.5v236zM534 473
q0 88 -51.5 136t-150.5 48q-100 0 -151.5 -48t-51.5 -136v-236q0 -88 51.5 -136t151.5 -48q99 0 150.5 48t51.5 136v236z" />
    <glyph glyph-name="Ocircumflex" unicode="&#xd4;" horiz-adv-x="663" 
d="M337 911q11 0 17 -2t18 -14l122 -108q5 -5 4 -9.5t-13 -4.5h-27q-12 0 -18 1.5t-12 8.5l-96 82l-97 -82q-8 -7 -13 -8.5t-16 -1.5h-26q-12 0 -13 4.5t4 9.5l123 108q11 11 17 13.5t19 2.5h7zM57 473q0 118 70 184.5t205 66.5q134 0 204 -66.5t70 -184.5v-236
q0 -118 -70 -184.5t-204 -66.5q-135 0 -205 66.5t-70 184.5v236zM534 473q0 88 -51.5 136t-150.5 48q-100 0 -151.5 -48t-51.5 -136v-236q0 -88 51.5 -136t151.5 -48q99 0 150.5 48t51.5 136v236z" />
    <glyph glyph-name="Otilde" unicode="&#xd5;" horiz-adv-x="663" 
d="M472 892q11 0 11 -12q0 -51 -18.5 -75.5t-59.5 -24.5q-26 0 -44.5 10.5t-34.5 23t-31.5 23t-35.5 10.5t-30 -14.5t-10 -40.5q0 -12 -12 -12h-20q-12 0 -12 12q0 100 78 100q27 0 46 -10.5t35 -23t31.5 -23t35.5 -10.5t30 14.5t10 40.5q0 12 11 12h20zM57 473
q0 118 70 184.5t205 66.5q134 0 204 -66.5t70 -184.5v-236q0 -118 -70 -184.5t-204 -66.5q-135 0 -205 66.5t-70 184.5v236zM534 473q0 88 -51.5 136t-150.5 48q-100 0 -151.5 -48t-51.5 -136v-236q0 -88 51.5 -136t151.5 -48q99 0 150.5 48t51.5 136v236z" />
    <glyph glyph-name="Odieresis" unicode="&#xd6;" horiz-adv-x="663" 
d="M238 874q20 0 26.5 -7t6.5 -25v-8q0 -19 -6.5 -25.5t-26.5 -6.5h-6q-19 0 -26 6.5t-7 25.5v8q0 18 7 25t26 7h6zM432 874q19 0 26 -7t7 -25v-8q0 -19 -7 -25.5t-26 -6.5h-6q-20 0 -26.5 6.5t-6.5 25.5v8q0 18 6.5 25t26.5 7h6zM57 473q0 118 70 184.5t205 66.5
q134 0 204 -66.5t70 -184.5v-236q0 -118 -70 -184.5t-204 -66.5q-135 0 -205 66.5t-70 184.5v236zM534 473q0 88 -51.5 136t-150.5 48q-100 0 -151.5 -48t-51.5 -136v-236q0 -88 51.5 -136t151.5 -48q99 0 150.5 48t51.5 136v236z" />
    <glyph glyph-name="multiply" unicode="&#xd7;" horiz-adv-x="507" 
d="M442 180q8 -8 8 -14t-8 -14l-16 -16q-13 -13 -28 0l-145 145l-144 -144q-8 -8 -14 -8t-14 8l-15 16q-8 8 -8 13.5t8 13.5l144 144l-144 145q-15 15 0 28l15 16q8 8 14 8t14 -8l144 -145l145 145q8 8 14 8t14 -8l16 -16q8 -8 8 -13.5t-8 -13.5l-146 -146l146 -144v0z" />
    <glyph glyph-name="Oslash" unicode="&#xd8;" horiz-adv-x="663" 
d="M610 751q7 0 4 -7l-65 -101q57 -63 57 -170v-236q0 -118 -70 -184t-204 -67q-54 -1 -97.5 10.5t-76.5 33.5l-42 -65q-3 -5 -5 -6t-10 -1h-38q-9 0 -4 7l60 96q-62 64 -62 176v236q0 118 70 184.5t205 66.5q113 0 180 -50l44 70q4 5 6 6t8 1h40zM473 614q-51 43 -141 43
q-100 0 -151.5 -48t-51.5 -136v-236q0 -65 36 -106zM197 91q50 -38 135 -38q99 0 150.5 48t51.5 136v236q0 62 -30 98z" />
    <glyph glyph-name="Ugrave" unicode="&#xd9;" horiz-adv-x="682" 
d="M250 891q8 9 16 7.5t18 -6.5l164 -97q13 -7 1 -20l-9 -11q-4 -5 -9.5 -5t-14.5 4l-178 89q-9 4 -9.5 8.5t6.5 12.5zM145 241q0 -87 48.5 -137.5t147.5 -50.5t147.5 50.5t48.5 137.5v449q0 20 20 20h33q20 0 20 -20v-448q0 -59 -17 -106t-50.5 -81t-84 -52t-117.5 -18
t-117.5 18t-84 52t-50.5 81t-17 106v448q0 20 20 20h33q20 0 20 -20v-449z" />
    <glyph glyph-name="Uacute" unicode="&#xda;" horiz-adv-x="682" 
d="M399 898q9 5 17.5 6t16.5 -8l15 -18q7 -8 6.5 -12.5t-9.5 -8.5l-177 -93q-8 -3 -13.5 -3t-9.5 5l-9 11q-12 13 1 20zM145 241q0 -87 48.5 -137.5t147.5 -50.5t147.5 50.5t48.5 137.5v449q0 20 20 20h33q20 0 20 -20v-448q0 -59 -17 -106t-50.5 -81t-84 -52t-117.5 -18
t-117.5 18t-84 52t-50.5 81t-17 106v448q0 20 20 20h33q20 0 20 -20v-449z" />
    <glyph glyph-name="Ucircumflex" unicode="&#xdb;" horiz-adv-x="682" 
d="M346 901q11 0 17 -2t18 -14l122 -108q5 -5 4 -9.5t-13 -4.5h-27q-12 0 -18 1.5t-12 8.5l-96 82l-97 -82q-8 -7 -13 -8.5t-16 -1.5h-26q-12 0 -13 4.5t4 9.5l123 108q11 11 17 13.5t19 2.5h7zM145 241q0 -87 48.5 -137.5t147.5 -50.5t147.5 50.5t48.5 137.5v449
q0 20 20 20h33q20 0 20 -20v-448q0 -59 -17 -106t-50.5 -81t-84 -52t-117.5 -18t-117.5 18t-84 52t-50.5 81t-17 106v448q0 20 20 20h33q20 0 20 -20v-449z" />
    <glyph glyph-name="Udieresis" unicode="&#xdc;" horiz-adv-x="682" 
d="M247 864q20 0 26.5 -7t6.5 -25v-8q0 -19 -6.5 -25.5t-26.5 -6.5h-6q-19 0 -26 6.5t-7 25.5v8q0 18 7 25t26 7h6zM441 864q19 0 26 -7t7 -25v-8q0 -19 -7 -25.5t-26 -6.5h-6q-20 0 -26.5 6.5t-6.5 25.5v8q0 18 6.5 25t26.5 7h6zM145 241q0 -87 48.5 -137.5t147.5 -50.5
t147.5 50.5t48.5 137.5v449q0 20 20 20h33q20 0 20 -20v-448q0 -59 -17 -106t-50.5 -81t-84 -52t-117.5 -18t-117.5 18t-84 52t-50.5 81t-17 106v448q0 20 20 20h33q20 0 20 -20v-449z" />
    <glyph glyph-name="Yacute" unicode="&#xdd;" horiz-adv-x="627" 
d="M373 898q9 5 17.5 6t16.5 -8l15 -18q7 -8 6.5 -12.5t-9.5 -8.5l-177 -93q-8 -3 -13.5 -3t-9.5 5l-9 11q-12 13 1 20zM601 710q11 0 13 -6t-3 -14l-261 -402v-268q0 -20 -20 -20h-33q-20 0 -20 20v269l-261 401q-5 8 -3 14t13 6h41q17 0 24 -2.5t14 -15.5l209 -329
l211 329q7 13 14 15.5t24 2.5h38z" />
    <glyph glyph-name="Thorn" unicode="&#xde;" horiz-adv-x="620" 
d="M355 591q54 0 97.5 -16t74.5 -46t47.5 -73t16.5 -97t-16.5 -97t-47.5 -72.5t-74.5 -45.5t-97.5 -16h-205v-108q0 -11 -4 -15.5t-15 -4.5h-33q-20 0 -20 20v670q0 20 20 20h33q11 0 15 -4.5t4 -15.5v-99h205zM349 196q77 0 122 44t45 119t-45 120t-122 45h-199v-328h199z
" />
    <glyph glyph-name="germandbls" unicode="&#xdf;" 
d="M67 528q0 49 13 90t39 70.5t64.5 45.5t88.5 16q106 0 158 -52.5t52 -148.5q0 -23 -5 -46.5t-15.5 -45t-28 -39t-42.5 -28.5v-3q54 -17 85.5 -61.5t31.5 -120.5q0 -102 -53.5 -153.5t-152.5 -51.5h-81q-20 0 -20 20v27q0 20 20 20h74q68 0 104 36.5t36 108.5
q0 63 -35 100.5t-99 37.5h-78q-19 0 -19 20v26q0 20 19 20h73q31 0 52.5 11.5t35.5 29.5t20.5 40.5t6.5 45.5q0 68 -34.5 104t-104.5 36q-68 0 -103 -42t-35 -113v-508q0 -20 -20 -20h-27q-20 0 -20 20v508v0z" />
    <glyph glyph-name="agrave" unicode="&#xe0;" horiz-adv-x="512" 
d="M162 718q8 9 16.5 8t17.5 -6l162 -101q13 -6 2 -20l-10 -11q-4 -5 -9 -5t-14 3l-177 93q-9 4 -9 8.5t7 12.5zM54 424q26 50 75.5 77.5t125.5 27.5q60 0 98.5 -16t61 -43t31.5 -63t9 -76v-262q0 -26 -7.5 -37t-28.5 -20q-28 -12 -68.5 -19t-97.5 -7q-65 0 -107 10t-66 30
t-33.5 48.5t-9.5 66.5q0 43 12.5 72.5t39 48t68 26.5t100.5 8q45 0 81 -4t50 -6v46q0 29 -6 54t-21 43.5t-41 29t-67 10.5q-53 0 -86.5 -19t-53.5 -54q-6 -8 -10.5 -10.5t-14.5 2.5l-24 10q-19 7 -10 26zM388 231q-8 1 -22 2.5t-32.5 3t-40 2.5t-43.5 1q-81 0 -112.5 -23.5
t-31.5 -74.5q0 -24 5.5 -42.5t21.5 -31t43.5 -19.5t71.5 -7q42 0 71 4t50 12q11 5 15 10t4 19v144z" />
    <glyph glyph-name="aacute" unicode="&#xe1;" horiz-adv-x="512" 
d="M310 720q10 5 18 6t16 -8l15 -18q7 -8 7 -12.5t-10 -8.5l-176 -93q-9 -3 -14 -3t-10 5l-9 11q-11 13 1 20zM54 424q26 50 75.5 77.5t125.5 27.5q60 0 98.5 -16t61 -43t31.5 -63t9 -76v-262q0 -26 -7.5 -37t-28.5 -20q-28 -12 -68.5 -19t-97.5 -7q-65 0 -107 10t-66 30
t-33.5 48.5t-9.5 66.5q0 43 12.5 72.5t39 48t68 26.5t100.5 8q45 0 81 -4t50 -6v46q0 29 -6 54t-21 43.5t-41 29t-67 10.5q-53 0 -86.5 -19t-53.5 -54q-6 -8 -10.5 -10.5t-14.5 2.5l-24 10q-19 7 -10 26zM388 231q-8 1 -22 2.5t-32.5 3t-40 2.5t-43.5 1q-81 0 -112.5 -23.5
t-31.5 -74.5q0 -24 5.5 -42.5t21.5 -31t43.5 -19.5t71.5 -7q42 0 71 4t50 12q11 5 15 10t4 19v144z" />
    <glyph glyph-name="acircumflex" unicode="&#xe2;" horiz-adv-x="512" 
d="M258 719q11 0 16.5 -2.5t17.5 -14.5l122 -107q6 -6 4.5 -10.5t-13.5 -4.5h-27q-11 0 -17 1.5t-13 8.5l-96 83l-97 -83q-7 -7 -12 -8.5t-16 -1.5h-26q-12 0 -13.5 4.5t3.5 10.5l123 107q12 12 17.5 14.5t18.5 2.5h8zM54 424q26 50 75.5 77.5t125.5 27.5q60 0 98.5 -16
t61 -43t31.5 -63t9 -76v-262q0 -26 -7.5 -37t-28.5 -20q-28 -12 -68.5 -19t-97.5 -7q-65 0 -107 10t-66 30t-33.5 48.5t-9.5 66.5q0 43 12.5 72.5t39 48t68 26.5t100.5 8q45 0 81 -4t50 -6v46q0 29 -6 54t-21 43.5t-41 29t-67 10.5q-53 0 -86.5 -19t-53.5 -54
q-6 -8 -10.5 -10.5t-14.5 2.5l-24 10q-19 7 -10 26zM388 231q-8 1 -22 2.5t-32.5 3t-40 2.5t-43.5 1q-81 0 -112.5 -23.5t-31.5 -74.5q0 -24 5.5 -42.5t21.5 -31t43.5 -19.5t71.5 -7q42 0 71 4t50 12q11 5 15 10t4 19v144z" />
    <glyph glyph-name="atilde" unicode="&#xe3;" horiz-adv-x="512" 
d="M392 706q12 0 12 -12q0 -51 -18.5 -75.5t-59.5 -24.5q-26 0 -44.5 10.5t-34.5 23t-32 23t-36 10.5t-30 -14.5t-10 -40.5q0 -12 -11 -12h-20q-12 0 -12 12q0 100 77 100q27 0 46 -10.5t35.5 -23t32 -23t35.5 -10.5t29.5 14.5t9.5 40.5q0 12 11 12h20zM54 424
q26 50 75.5 77.5t125.5 27.5q60 0 98.5 -16t61 -43t31.5 -63t9 -76v-262q0 -26 -7.5 -37t-28.5 -20q-28 -12 -68.5 -19t-97.5 -7q-65 0 -107 10t-66 30t-33.5 48.5t-9.5 66.5q0 43 12.5 72.5t39 48t68 26.5t100.5 8q45 0 81 -4t50 -6v46q0 29 -6 54t-21 43.5t-41 29
t-67 10.5q-53 0 -86.5 -19t-53.5 -54q-6 -8 -10.5 -10.5t-14.5 2.5l-24 10q-19 7 -10 26zM388 231q-8 1 -22 2.5t-32.5 3t-40 2.5t-43.5 1q-81 0 -112.5 -23.5t-31.5 -74.5q0 -24 5.5 -42.5t21.5 -31t43.5 -19.5t71.5 -7q42 0 71 4t50 12q11 5 15 10t4 19v144z" />
    <glyph glyph-name="adieresis" unicode="&#xe4;" horiz-adv-x="512" 
d="M158 687q20 0 26.5 -7t6.5 -25v-8q0 -19 -6.5 -26t-26.5 -7h-6q-19 0 -25.5 7t-6.5 26v8q0 18 6.5 25t25.5 7h6zM352 687q19 0 26 -7t7 -25v-8q0 -19 -7 -26t-26 -7h-5q-20 0 -27 7t-7 26v8q0 18 7 25t27 7h5zM54 424q26 50 75.5 77.5t125.5 27.5q60 0 98.5 -16t61 -43
t31.5 -63t9 -76v-262q0 -26 -7.5 -37t-28.5 -20q-28 -12 -68.5 -19t-97.5 -7q-65 0 -107 10t-66 30t-33.5 48.5t-9.5 66.5q0 43 12.5 72.5t39 48t68 26.5t100.5 8q45 0 81 -4t50 -6v46q0 29 -6 54t-21 43.5t-41 29t-67 10.5q-53 0 -86.5 -19t-53.5 -54q-6 -8 -10.5 -10.5
t-14.5 2.5l-24 10q-19 7 -10 26zM388 231q-8 1 -22 2.5t-32.5 3t-40 2.5t-43.5 1q-81 0 -112.5 -23.5t-31.5 -74.5q0 -24 5.5 -42.5t21.5 -31t43.5 -19.5t71.5 -7q42 0 71 4t50 12q11 5 15 10t4 19v144z" />
    <glyph glyph-name="aring" unicode="&#xe5;" horiz-adv-x="512" 
d="M154 681q0 45 27.5 71.5t74.5 26.5q45 0 72 -26.5t27 -71.5t-27 -71.5t-72 -26.5q-47 0 -74.5 26.5t-27.5 71.5zM319 681q0 29 -17 46t-46 17q-31 0 -48.5 -17t-17.5 -46t17.5 -46t48.5 -17q29 0 46 17t17 46zM54 424q26 50 75.5 77.5t125.5 27.5q60 0 98.5 -16t61 -43
t31.5 -63t9 -76v-262q0 -26 -7.5 -37t-28.5 -20q-28 -12 -68.5 -19t-97.5 -7q-65 0 -107 10t-66 30t-33.5 48.5t-9.5 66.5q0 43 12.5 72.5t39 48t68 26.5t100.5 8q45 0 81 -4t50 -6v46q0 29 -6 54t-21 43.5t-41 29t-67 10.5q-53 0 -86.5 -19t-53.5 -54q-6 -8 -10.5 -10.5
t-14.5 2.5l-24 10q-19 7 -10 26zM388 231q-8 1 -22 2.5t-32.5 3t-40 2.5t-43.5 1q-81 0 -112.5 -23.5t-31.5 -74.5q0 -24 5.5 -42.5t21.5 -31t43.5 -19.5t71.5 -7q42 0 71 4t50 12q11 5 15 10t4 19v144z" />
    <glyph glyph-name="ae" unicode="&#xe6;" horiz-adv-x="788" 
d="M55 424q26 50 69.5 77.5t112.5 27.5q66 0 100.5 -24.5t50.5 -62.5q20 42 59 64.5t102 22.5q53 0 90.5 -15.5t61.5 -42.5t35 -65t11 -83v-56q0 -13 -6.5 -20.5t-23.5 -7.5h-299v-59q0 -64 29.5 -100t98.5 -36q28 0 48.5 6t35.5 16.5t26 25.5t22 34q7 9 13 10.5t17 -3.5
l20 -12q20 -9 7 -28q-13 -24 -29 -43.5t-38 -33.5t-52 -22t-70 -8q-52 0 -87.5 15.5t-56.5 44.5q-20 -23 -57.5 -41.5t-108.5 -18.5q-59 0 -97.5 10t-61 29t-31 47.5t-8.5 66.5q0 43 11 72.5t35 48t62.5 26.5t93.5 8q34 0 65 -3.5t45 -5.5v55q0 27 -4 50.5t-16.5 41
t-35 27.5t-59.5 10q-45 0 -73 -18.5t-48 -53.5q-6 -9 -10.5 -11t-14.5 2l-24 10q-10 5 -12.5 10t2.5 16zM680 327q0 67 -30 105.5t-101 38.5t-101 -38.5t-30 -105.5v-36h262v36zM350 229q-8 1 -21 3t-29 3.5t-33.5 2.5t-34.5 1q-36 0 -60.5 -6t-39 -18t-20.5 -30.5t-6 -44.5
q0 -24 5 -42t19 -30.5t38 -19t62 -6.5q37 0 61 7t38 16t20 18t8 14q-7 28 -7 66v66z" />
    <glyph glyph-name="ccedilla" unicode="&#xe7;" horiz-adv-x="514" 
d="M466 152q10 -4 13.5 -9.5t-1.5 -16.5q-20 -64 -66 -99t-124 -40l-23 -61q10 3 26 3q40 0 63.5 -22t21.5 -58q-3 -51 -37 -73t-82 -22q-24 0 -45.5 5.5t-34.5 13.5q-7 4 -9.5 8t-2.5 12v19q0 5 2.5 7.5t7.5 -0.5q13 -9 29 -16t45 -7q34 0 51.5 15t17.5 41q0 42 -60 42
q-20 0 -33 -4q-18 -1 -11 17l32 79q-100 5 -148.5 57t-48.5 140v149q0 91 53.5 144t164.5 53q92 0 141 -36.5t68 -98.5q4 -11 1 -16.5t-13 -9.5l-26 -9q-11 -4 -16 -1t-9 13q-16 50 -49.5 74t-98.5 24q-75 0 -112 -36t-37 -99v-153q0 -63 37.5 -99.5t111.5 -36.5q63 0 98 26
t51 77q5 11 10 13t16 -1l26 -8v0z" />
    <glyph glyph-name="egrave" unicode="&#xe8;" horiz-adv-x="530" 
d="M178 719q8 8 16.5 7t17.5 -6l162 -100q8 -5 8 -8.5t-6 -11.5l-10 -12q-7 -8 -23 -1l-177 92q-9 5 -9 9.5t7 12.5zM47 318q0 100 56 155.5t165 55.5q56 0 98 -15.5t69.5 -43t41 -65.5t13.5 -83v-55q0 -13 -6.5 -20.5t-23.5 -7.5h-346v-58q0 -64 37.5 -100.5t112.5 -36.5
q62 0 99 22.5t58 60.5q7 9 13 10.5t16 -3.5l21 -11q19 -10 7 -29q-26 -47 -77 -77.5t-137 -30.5q-56 0 -97 14.5t-67.5 41.5t-39.5 64t-13 82v130zM423 326q0 67 -38.5 106t-116.5 39q-77 0 -115.5 -39t-38.5 -106v-35h309v35z" />
    <glyph glyph-name="eacute" unicode="&#xe9;" horiz-adv-x="530" 
d="M326 720q10 5 18 6t16 -7l15 -18q7 -8 7 -12.5t-10 -9.5l-176 -92q-16 -7 -24 1l-9 12q-6 8 -6 11.5t7 8.5zM47 318q0 100 56 155.5t165 55.5q56 0 98 -15.5t69.5 -43t41 -65.5t13.5 -83v-55q0 -13 -6.5 -20.5t-23.5 -7.5h-346v-58q0 -64 37.5 -100.5t112.5 -36.5
q62 0 99 22.5t58 60.5q7 9 13 10.5t16 -3.5l21 -11q19 -10 7 -29q-26 -47 -77 -77.5t-137 -30.5q-56 0 -97 14.5t-67.5 41.5t-39.5 64t-13 82v130zM423 326q0 67 -38.5 106t-116.5 39q-77 0 -115.5 -39t-38.5 -106v-35h309v35z" />
    <glyph glyph-name="ecircumflex" unicode="&#xea;" horiz-adv-x="530" 
d="M274 715q11 0 16 -2.5t17 -13.5l120 -105q5 -6 3.5 -10.5t-12.5 -4.5h-27q-11 0 -17 2t-12 8l-94 81l-95 -81q-7 -7 -12 -8.5t-16 -1.5h-25q-12 0 -13 4.5t4 10.5l120 105q11 11 16.5 13.5t18.5 2.5h8zM47 318q0 100 56 155.5t165 55.5q56 0 98 -15.5t69.5 -43t41 -65.5
t13.5 -83v-55q0 -13 -6.5 -20.5t-23.5 -7.5h-346v-58q0 -64 37.5 -100.5t112.5 -36.5q62 0 99 22.5t58 60.5q7 9 13 10.5t16 -3.5l21 -11q19 -10 7 -29q-26 -47 -77 -77.5t-137 -30.5q-56 0 -97 14.5t-67.5 41.5t-39.5 64t-13 82v130zM423 326q0 67 -38.5 106t-116.5 39
q-77 0 -115.5 -39t-38.5 -106v-35h309v35z" />
    <glyph glyph-name="edieresis" unicode="&#xeb;" horiz-adv-x="530" 
d="M174 688q20 0 26.5 -7.5t6.5 -25.5v-8q0 -18 -6.5 -25t-26.5 -7h-6q-19 0 -25.5 7t-6.5 25v8q0 18 6.5 25.5t25.5 7.5h6zM368 688q19 0 26 -7.5t7 -25.5v-8q0 -18 -7 -25t-26 -7h-5q-20 0 -27 7t-7 25v8q0 18 7 25.5t27 7.5h5zM47 318q0 100 56 155.5t165 55.5
q56 0 98 -15.5t69.5 -43t41 -65.5t13.5 -83v-55q0 -13 -6.5 -20.5t-23.5 -7.5h-346v-58q0 -64 37.5 -100.5t112.5 -36.5q62 0 99 22.5t58 60.5q7 9 13 10.5t16 -3.5l21 -11q19 -10 7 -29q-26 -47 -77 -77.5t-137 -30.5q-56 0 -97 14.5t-67.5 41.5t-39.5 64t-13 82v130z
M423 326q0 67 -38.5 106t-116.5 39q-77 0 -115.5 -39t-38.5 -106v-35h309v35z" />
    <glyph glyph-name="igrave" unicode="&#xec;" horiz-adv-x="199" 
d="M28 715q7 9 15.5 8t17.5 -6l130 -98q7 -5 7.5 -8.5t-5.5 -11.5l-9 -11q-5 -9 -23 -1l-145 89q-9 4 -9.5 8.5t6.5 12.5zM116 514q10 0 14 -3.5t4 -14.5v-478q0 -11 -4 -14.5t-14 -3.5h-32q-10 0 -14 3.5t-4 14.5v478q0 11 4 14.5t14 3.5h32z" />
    <glyph glyph-name="iacute" unicode="&#xed;" horiz-adv-x="199" 
d="M141 717q9 5 17.5 6t15.5 -8l15 -18q7 -8 6.5 -12.5t-10.5 -8.5l-144 -90q-18 -8 -24 1l-8 11q-7 8 -6 12t8 9zM115 514q11 0 14.5 -3.5t3.5 -14.5v-478q0 -11 -3.5 -14.5t-14.5 -3.5h-31q-11 0 -14.5 3.5t-3.5 14.5v478q0 11 3.5 14.5t14.5 3.5h31z" />
    <glyph glyph-name="icircumflex" unicode="&#xee;" horiz-adv-x="199" 
d="M229 599q12 -14 -9 -14h-24q-12 0 -18.5 1t-11.5 9l-67 77l-69 -77q-5 -8 -11 -9t-17 -1h-23q-11 0 -13 4t3 10l93 101q11 12 16.5 14t18.5 2h7q11 0 16.5 -2t16.5 -14zM115 514q11 0 14.5 -3.5t3.5 -14.5v-478q0 -11 -3.5 -14.5t-14.5 -3.5h-31q-11 0 -14.5 3.5
t-3.5 14.5v478q0 11 3.5 14.5t14.5 3.5h31z" />
    <glyph glyph-name="idieresis" unicode="&#xef;" horiz-adv-x="199" 
d="M27 698q20 0 26.5 -7t6.5 -25v-8q0 -19 -6.5 -25.5t-26.5 -6.5h-6q-19 0 -26 6.5t-7 25.5v8q0 18 7 25t26 7h6zM178 698q18 0 25.5 -7t7.5 -25v-8q0 -19 -7.5 -25.5t-25.5 -6.5h-6q-20 0 -27 6.5t-7 25.5v8q0 18 7 25t27 7h6zM115 514q11 0 14.5 -3.5t3.5 -14.5v-478
q0 -11 -3.5 -14.5t-14.5 -3.5h-31q-11 0 -14.5 3.5t-3.5 14.5v478q0 11 3.5 14.5t14.5 3.5h31z" />
    <glyph glyph-name="eth" unicode="&#xf0;" horiz-adv-x="551" 
d="M416 747q6 7 15 0l18 -13q5 -5 5 -7.5t-4 -7.5l-48 -51q47 -42 67.5 -108.5t20.5 -160.5v-220q0 -91 -55.5 -142t-164.5 -51q-111 0 -166.5 51t-55.5 142v131q0 91 54.5 143t154.5 52q67 0 108 -20.5t61 -58.5q-2 66 -17.5 113.5t-50.5 79.5l-66 -70q-7 -7 -15 -1l-17 13
q-5 4 -5.5 7t4.5 8l62 66q-62 38 -175 38q-11 0 -15 3.5t-4 13.5l-1 26q0 11 3.5 15t14.5 4q72 0 126.5 -12.5t94.5 -36.5zM423 311q0 63 -39 98t-114 35q-77 0 -115.5 -35t-38.5 -99v-130q0 -63 38.5 -98t115.5 -35q75 0 114 35t39 98v131z" />
    <glyph glyph-name="ntilde" unicode="&#xf1;" 
d="M413 706q12 0 12 -12q0 -50 -18.5 -74.5t-59.5 -24.5q-26 0 -44.5 10.5t-34.5 23t-32 23t-36 10.5q-19 0 -29.5 -14.5t-10.5 -40.5q0 -12 -11 -12h-20q-12 0 -12 12q0 99 78 99q27 0 46 -10.5t35 -23t31.5 -23t35.5 -10.5t29.5 15t9.5 40q0 12 12 12h19zM102 495
q29 12 73.5 23t112.5 11q104 0 151.5 -51.5t47.5 -144.5v-315q0 -11 -4 -14.5t-14 -3.5h-31q-11 0 -14.5 3.5t-3.5 14.5v313q0 68 -34 102t-106 34q-43 0 -76.5 -7t-56.5 -15q-10 -5 -12.5 -11t-2.5 -14v-402q0 -11 -4 -14.5t-14 -3.5h-32q-10 0 -14 3.5t-4 14.5v422
q0 23 7.5 34t30.5 21z" />
    <glyph glyph-name="ograve" unicode="&#xf2;" horiz-adv-x="539" 
d="M179 718q8 9 16.5 8t17.5 -6l162 -101q13 -7 1 -20l-9 -11q-4 -5 -9.5 -5t-14.5 3l-176 93q-9 4 -9.5 8.5t6.5 12.5zM50 345q0 86 58 135t161 49q104 0 162.5 -49t58.5 -135v-176q0 -86 -58.5 -134.5t-162.5 -48.5q-103 0 -161 48.5t-58 134.5v176zM422 345
q0 58 -41 90.5t-112 32.5q-69 0 -110.5 -32.5t-41.5 -90.5v-176q0 -57 41.5 -89.5t110.5 -32.5q71 0 112 32.5t41 89.5v176z" />
    <glyph glyph-name="oacute" unicode="&#xf3;" horiz-adv-x="539" 
d="M327 720q9 5 17.5 6t16.5 -8l15 -18q7 -8 6.5 -12.5t-9.5 -8.5l-176 -93q-9 -3 -14.5 -3t-9.5 5l-9 11q-12 13 1 20zM50 345q0 86 58 135t161 49q104 0 162.5 -49t58.5 -135v-176q0 -86 -58.5 -134.5t-162.5 -48.5q-103 0 -161 48.5t-58 134.5v176zM422 345
q0 58 -41 90.5t-112 32.5q-69 0 -110.5 -32.5t-41.5 -90.5v-176q0 -57 41.5 -89.5t110.5 -32.5q71 0 112 32.5t41 89.5v176z" />
    <glyph glyph-name="ocircumflex" unicode="&#xf4;" horiz-adv-x="539" 
d="M274 714q11 0 16.5 -2t17.5 -14l119 -105q5 -5 4 -9.5t-13 -4.5h-26q-11 0 -17 1.5t-12 8.5l-94 80l-95 -80q-8 -7 -12.5 -8.5t-15.5 -1.5h-26q-11 0 -12.5 4.5t4.5 9.5l120 105q11 11 16.5 13.5t18.5 2.5h7zM50 345q0 86 58 135t161 49q104 0 162.5 -49t58.5 -135v-176
q0 -86 -58.5 -134.5t-162.5 -48.5q-103 0 -161 48.5t-58 134.5v176zM422 345q0 58 -41 90.5t-112 32.5q-69 0 -110.5 -32.5t-41.5 -90.5v-176q0 -57 41.5 -89.5t110.5 -32.5q71 0 112 32.5t41 89.5v176z" />
    <glyph glyph-name="otilde" unicode="&#xf5;" horiz-adv-x="539" 
d="M409 706q12 0 12 -12q0 -100 -78 -100q-26 0 -44.5 10.5t-34.5 23t-32 23t-36 10.5t-30 -14.5t-10 -40.5q0 -12 -12 -12h-20q-12 0 -12 12q0 51 20 75.5t58 24.5q27 0 46 -10.5t35 -23t31.5 -23t35.5 -10.5t30 14.5t10 40.5q0 12 11 12h20zM50 345q0 86 58 135t161 49
q104 0 162.5 -49t58.5 -135v-176q0 -86 -58.5 -134.5t-162.5 -48.5q-103 0 -161 48.5t-58 134.5v176zM422 345q0 58 -41 90.5t-112 32.5q-69 0 -110.5 -32.5t-41.5 -90.5v-176q0 -57 41.5 -89.5t110.5 -32.5q71 0 112 32.5t41 89.5v176z" />
    <glyph glyph-name="odieresis" unicode="&#xf6;" horiz-adv-x="539" 
d="M175 687q20 0 26.5 -7t6.5 -25v-8q0 -19 -6.5 -26t-26.5 -7h-6q-19 0 -26 7t-7 26v8q0 18 7 25t26 7h6zM369 687q19 0 26 -7t7 -25v-8q0 -19 -7 -26t-26 -7h-6q-19 0 -26 7t-7 26v8q0 18 7 25t26 7h6zM50 345q0 86 58 135t161 49q104 0 162.5 -49t58.5 -135v-176
q0 -86 -58.5 -134.5t-162.5 -48.5q-103 0 -161 48.5t-58 134.5v176zM422 345q0 58 -41 90.5t-112 32.5q-69 0 -110.5 -32.5t-41.5 -90.5v-176q0 -57 41.5 -89.5t110.5 -32.5q71 0 112 32.5t41 89.5v176z" />
    <glyph glyph-name="divide" unicode="&#xf7;" horiz-adv-x="578" 
d="M292 564q23 0 31.5 -8.5t8.5 -31.5v-7q0 -23 -8.5 -31t-31.5 -8h-6q-23 0 -31 8t-8 31v7q0 23 8 31.5t31 8.5h6zM505 357q11 0 15 -4.5t4 -15.5v-25q0 -11 -4 -15.5t-15 -4.5h-432q-19 0 -19 20v25q0 20 19 20h432zM292 173q23 0 31.5 -8t8.5 -31v-7q0 -23 -8.5 -31.5
t-31.5 -8.5h-6q-23 0 -31 8.5t-8 31.5v7q0 23 8 31t31 8h6z" />
    <glyph glyph-name="oslash" unicode="&#xf8;" horiz-adv-x="539" 
d="M472 552q8 0 3 -7l-42 -67q27 -23 42 -57t15 -76v-176q0 -86 -58.5 -134.5t-162.5 -48.5q-77 0 -130 29l-27 -44q-3 -4 -5 -5t-9 -1h-28q-4 0 -4.5 2.5t1.5 4.5l40 64q-57 49 -57 133v176q0 86 58 135t161 49q39 0 72 -8t59 -22l30 47q4 5 6 5.5t7 0.5h29zM366 445
q-19 11 -43.5 17t-53.5 6q-69 0 -110.5 -32.5t-41.5 -90.5v-176q0 -43 30 -70zM174 70q38 -23 95 -23q71 0 112 32.5t41 89.5v176q0 43 -29 70z" />
    <glyph glyph-name="ugrave" unicode="&#xf9;" 
d="M183 718q8 9 16.5 8t17.5 -6l162 -101q13 -7 1 -20l-9 -11q-4 -5 -9.5 -5t-14.5 3l-176 93q-9 4 -9.5 8.5t6.5 12.5zM467 514q9 0 13.5 -3.5t4.5 -14.5v-422q0 -23 -7.5 -34t-30.5 -21q-29 -12 -73.5 -22.5t-113.5 -10.5q-103 0 -150.5 51t-47.5 144v315q0 11 3.5 14.5
t14.5 3.5h31q11 0 14.5 -3.5t3.5 -14.5v-312q0 -68 33.5 -102.5t106.5 -34.5q43 0 75 6.5t55 15.5q12 5 15 11.5t3 16.5v399q0 11 4 14.5t14 3.5h32z" />
    <glyph glyph-name="uacute" unicode="&#xfa;" 
d="M331 720q9 5 17.5 6t16.5 -8l15 -18q7 -8 6.5 -12.5t-9.5 -8.5l-176 -93q-9 -3 -14.5 -3t-9.5 5l-9 11q-12 13 1 20zM467 514q9 0 13.5 -3.5t4.5 -14.5v-422q0 -23 -7.5 -34t-30.5 -21q-29 -12 -73.5 -22.5t-113.5 -10.5q-103 0 -150.5 51t-47.5 144v315q0 11 3.5 14.5
t14.5 3.5h31q11 0 14.5 -3.5t3.5 -14.5v-312q0 -68 33.5 -102.5t106.5 -34.5q43 0 75 6.5t55 15.5q12 5 15 11.5t3 16.5v399q0 11 4 14.5t14 3.5h32z" />
    <glyph glyph-name="ucircumflex" unicode="&#xfb;" 
d="M279 719q11 0 16.5 -2.5t17.5 -14.5l122 -107q5 -6 4 -10.5t-13 -4.5h-27q-12 0 -18 1.5t-12 8.5l-96 83l-97 -83q-8 -7 -13 -8.5t-16 -1.5h-26q-12 0 -13 4.5t4 10.5l123 107q12 12 17.5 14.5t18.5 2.5h8zM467 514q9 0 13.5 -3.5t4.5 -14.5v-422q0 -23 -7.5 -34
t-30.5 -21q-29 -12 -73.5 -22.5t-113.5 -10.5q-103 0 -150.5 51t-47.5 144v315q0 11 3.5 14.5t14.5 3.5h31q11 0 14.5 -3.5t3.5 -14.5v-312q0 -68 33.5 -102.5t106.5 -34.5q43 0 75 6.5t55 15.5q12 5 15 11.5t3 16.5v399q0 11 4 14.5t14 3.5h32z" />
    <glyph glyph-name="udieresis" unicode="&#xfc;" 
d="M179 687q20 0 26.5 -7t6.5 -25v-8q0 -19 -6.5 -26t-26.5 -7h-6q-19 0 -26 7t-7 26v8q0 18 7 25t26 7h6zM373 687q19 0 26 -7t7 -25v-8q0 -19 -7 -26t-26 -7h-6q-19 0 -26 7t-7 26v8q0 18 7 25t26 7h6zM467 514q9 0 13.5 -3.5t4.5 -14.5v-422q0 -23 -7.5 -34t-30.5 -21
q-29 -12 -73.5 -22.5t-113.5 -10.5q-103 0 -150.5 51t-47.5 144v315q0 11 3.5 14.5t14.5 3.5h31q11 0 14.5 -3.5t3.5 -14.5v-312q0 -68 33.5 -102.5t106.5 -34.5q43 0 75 6.5t55 15.5q12 5 15 11.5t3 16.5v399q0 11 4 14.5t14 3.5h32z" />
    <glyph glyph-name="yacute" unicode="&#xfd;" horiz-adv-x="551" 
d="M331 720q9 5 17.5 6t16.5 -8l15 -18q7 -8 6.5 -12.5t-9.5 -8.5l-176 -93q-9 -3 -14.5 -3t-9.5 5l-9 11q-12 13 1 20zM467 514q10 0 14 -3.5t4 -14.5v-527q0 -49 -12 -88.5t-37.5 -68t-66 -44t-97.5 -15.5q-80 0 -127 30t-72 77q-12 20 7 30l22 11q11 6 17 4t12 -11
q20 -36 51.5 -58t88.5 -22q77 0 111.5 40t34.5 112v59q-26 -8 -63 -17t-94 -9q-103 0 -150.5 51t-47.5 144v302q0 11 3.5 14.5t14.5 3.5h31q11 0 14.5 -3.5t3.5 -14.5v-299q0 -68 33.5 -102.5t106.5 -34.5q51 0 88 9.5t60 17.5v409q0 11 4 14.5t14 3.5h32z" />
    <glyph glyph-name="thorn" unicode="&#xfe;" horiz-adv-x="539" 
d="M67 722q0 10 3.5 14t14.5 4h31q11 0 14.5 -4t3.5 -14v-226q19 7 56.5 17.5t91.5 10.5q107 0 157.5 -51.5t50.5 -148.5v-140q0 -95 -50 -147t-156 -52q-52 0 -91.5 13.5t-58.5 21.5v-222q0 -11 -3.5 -14.5t-14.5 -3.5h-31q-11 0 -14.5 3.5t-3.5 14.5v924zM422 322
q0 140 -149 140q-51 0 -86.5 -11.5t-52.5 -18.5v-351q18 -8 57 -21.5t89 -13.5q75 0 108.5 35.5t33.5 104.5v136z" />
    <glyph glyph-name="ydieresis" unicode="&#xff;" horiz-adv-x="551" 
d="M179 687q20 0 26.5 -7t6.5 -25v-8q0 -19 -6.5 -26t-26.5 -7h-6q-19 0 -26 7t-7 26v8q0 18 7 25t26 7h6zM373 687q19 0 26 -7t7 -25v-8q0 -19 -7 -26t-26 -7h-6q-19 0 -26 7t-7 26v8q0 18 7 25t26 7h6zM467 514q10 0 14 -3.5t4 -14.5v-527q0 -49 -12 -88.5t-37.5 -68
t-66 -44t-97.5 -15.5q-80 0 -127 30t-72 77q-12 20 7 30l22 11q11 6 17 4t12 -11q20 -36 51.5 -58t88.5 -22q77 0 111.5 40t34.5 112v59q-26 -8 -63 -17t-94 -9q-103 0 -150.5 51t-47.5 144v302q0 11 3.5 14.5t14.5 3.5h31q11 0 14.5 -3.5t3.5 -14.5v-299q0 -68 33.5 -102.5
t106.5 -34.5q51 0 88 9.5t60 17.5v409q0 11 4 14.5t14 3.5h32z" />
    <glyph glyph-name="dotlessi" unicode="&#x131;" horiz-adv-x="200" 
d="M116 514q10 0 14 -3.5t4 -14.5v-478q0 -11 -4 -14.5t-14 -3.5h-32q-10 0 -14 3.5t-4 14.5v478q0 11 4 14.5t14 3.5h32v0z" />
    <glyph glyph-name="OE" unicode="&#x152;" horiz-adv-x="845" 
d="M787 68q20 0 20 -20v-28q0 -20 -20 -20h-344q-25 -7 -53 -11t-58 -4q-135 0 -205 67t-70 185v236q0 118 70 185t205 67q30 0 58.5 -4t52.5 -11h331q20 0 20 -20v-28q0 -20 -20 -20h-279v-249h234q20 0 20 -20v-28q0 -20 -20 -20h-234v-257h292zM129 237q0 -88 51.5 -136
t151.5 -48q29 0 53.5 4t37.5 9v578q-14 5 -38 9t-53 4q-100 0 -151.5 -48t-51.5 -136v-236z" />
    <glyph glyph-name="oe" unicode="&#x153;" horiz-adv-x="817" 
d="M415 441q20 42 60 65t103 23q53 0 90.5 -15.5t61.5 -42.5t35 -65t11 -83v-56q0 -13 -6.5 -20.5t-23.5 -7.5h-299v-59q0 -64 29.5 -100t98.5 -36q28 0 48.5 6t35.5 16.5t26 25.5t22 34q7 9 13 10.5t16 -3.5l21 -12q20 -9 7 -28q-13 -24 -29 -43.5t-38 -33.5t-52 -22
t-70 -8q-63 0 -102 22t-59 63q-20 -41 -63 -63t-102 -22q-93 0 -145 48.5t-52 133.5v177q0 86 52 135t145 49q60 0 103 -23t63 -65zM709 327q0 67 -30 105.5t-101 38.5t-101 -38.5t-30 -105.5v-36h262v36zM380 346q0 57 -35.5 89.5t-95.5 32.5t-95 -32.5t-35 -89.5v-178
q0 -57 35 -89t95 -32t95.5 32t35.5 89v178z" />
    <glyph glyph-name="Scaron" unicode="&#x160;" horiz-adv-x="626" 
d="M467 910q12 0 13 -4.5t-4 -10.5l-122 -107q-12 -12 -17.5 -14t-16.5 -2h-8q-13 0 -18.5 2.5t-17.5 13.5l-122 107q-5 5 -4.5 10t12.5 5h26q11 0 16 -1.5t13 -8.5l97 -83l96 83q7 7 12.5 8.5t17.5 1.5h27zM52 519q0 46 17 84t50 65t81 41.5t110 14.5q103 0 164 -37.5
t99 -116.5q5 -10 2.5 -15.5t-13.5 -10.5l-31 -14q-10 -5 -15 -3t-11 12q-29 58 -74 87t-121 29q-89 0 -136.5 -34t-47.5 -98q0 -39 17.5 -62.5t46.5 -37t66 -20.5t77 -11q45 -5 90 -14t80.5 -29.5t58 -56.5t22.5 -96q0 -99 -69 -154.5t-203 -55.5q-109 0 -173 42.5
t-98 129.5q-4 11 -1.5 16.5t13.5 10.5l31 11q11 4 16 1.5t10 -13.5q28 -66 77.5 -98t124.5 -32q199 0 199 140q0 38 -16.5 61.5t-43.5 37t-62 19.5t-73 10q-47 5 -94 14t-84.5 29t-61.5 56.5t-24 97.5z" />
    <glyph glyph-name="scaron" unicode="&#x161;" horiz-adv-x="496" 
d="M385 700q11 0 12 -5t-4 -10l-110 -96q-11 -11 -16 -13t-15 -2h-7q-11 0 -16 2t-16 13l-111 97q-5 5 -4 9.5t11 4.5h25q10 0 14.5 -1.5t10.5 -8.5l88 -75l87 75q6 6 11 8t16 2h24zM46 379q0 69 49 109.5t148 40.5q86 0 134 -30t70 -79q10 -18 -9 -26l-25 -11
q-11 -5 -15.5 -2.5t-9.5 11.5q-8 17 -19 31t-28 24t-40.5 15.5t-56.5 5.5q-131 0 -131 -87q0 -30 11 -47t31.5 -26.5t48 -13.5t60.5 -7q41 -4 76.5 -11.5t62 -23.5t41.5 -43t15 -70q0 -70 -50.5 -111.5t-154.5 -41.5q-83 0 -137 29.5t-79 94.5q-8 18 11 24l26 9q9 3 14 1
t10 -12q18 -48 56 -67.5t97 -19.5q72 0 106.5 23.5t34.5 67.5q0 27 -10.5 43t-29.5 26t-45.5 15t-59.5 8q-38 4 -74 10t-64.5 21.5t-46 43.5t-17.5 76z" />
    <glyph glyph-name="Ydieresis" unicode="&#x178;" horiz-adv-x="627" 
d="M221 864q20 0 26.5 -7t6.5 -25v-8q0 -19 -6.5 -25.5t-26.5 -6.5h-6q-19 0 -26 6.5t-7 25.5v8q0 18 7 25t26 7h6zM415 864q19 0 26 -7t7 -25v-8q0 -19 -7 -25.5t-26 -6.5h-6q-20 0 -26.5 6.5t-6.5 25.5v8q0 18 6.5 25t26.5 7h6zM601 710q11 0 13 -6t-3 -14l-261 -402v-268
q0 -20 -20 -20h-33q-20 0 -20 20v269l-261 401q-5 8 -3 14t13 6h41q17 0 24 -2.5t14 -15.5l209 -329l211 329q7 13 14 15.5t24 2.5h38z" />
    <glyph glyph-name="Zcaron" unicode="&#x17d;" horiz-adv-x="566" 
d="M438 901q12 0 13 -5t-4 -10l-122 -107q-12 -12 -17.5 -14.5t-16.5 -2.5h-8q-13 0 -18.5 2.5t-16.5 14.5l-123 107q-5 5 -4 10t13 5h26q11 0 16 -1.5t12 -8.5l98 -83l95 83q7 7 13 8.5t17 1.5h27zM506 710q20 0 20 -20v-27q0 -8 -1.5 -12.5t-5.5 -9.5l-396 -573h393
q20 0 20 -19v-29q0 -20 -20 -20h-464q-19 0 -19 20v27q0 8 1 13t6 10l395 572h-378q-20 0 -20 20v28q0 20 20 20h449z" />
    <glyph glyph-name="zcaron" unicode="&#x17e;" horiz-adv-x="455" 
d="M364 699q11 0 12 -4.5t-4 -9.5l-110 -97q-11 -11 -16 -13t-15 -2h-7q-11 0 -16 2t-16 13l-111 97q-5 5 -4 9.5t11 4.5h25q10 0 14.5 -1.5t10.5 -8.5l88 -75l86 75q6 6 11 8t16 2h25zM407 61q10 0 14 -3.5t4 -14.5v-25q0 -11 -4 -14.5t-14 -3.5h-358q-11 0 -14.5 3.5
t-3.5 14.5v25q0 8 0.5 11t5.5 9l297 390h-282q-17 0 -17 18v25q0 11 3.5 14.5t13.5 3.5h350q11 0 14.5 -3.5t3.5 -14.5v-25q0 -7 -1 -11t-6 -10l-297 -389h291z" />
    <glyph glyph-name="florin" unicode="&#x192;" horiz-adv-x="445" 
d="M200 536q5 46 19 84t39.5 64.5t64 41t93.5 14.5q11 0 14.5 -3.5t3.5 -14.5v-26q0 -11 -3.5 -15t-14.5 -4q-39 0 -65.5 -10t-44 -29t-26.5 -45.5t-12 -59.5l-16 -144h137q11 0 14.5 -3.5t3.5 -14.5v-27q0 -10 -3.5 -14t-14.5 -4h-143l-37 -340q-5 -47 -18.5 -85t-39.5 -65
t-65 -41.5t-93 -14.5q-11 0 -14.5 3.5t-3.5 14.5v26q0 11 3.5 15t14.5 4q39 0 65.5 10.5t44 29t26.5 45.5t13 60l36 338h-129q-11 0 -14.5 4t-3.5 14v27q0 11 3.5 14.5t14.5 3.5h136l15 147v0z" />
    <glyph glyph-name="uni0237" unicode="&#x237;" horiz-adv-x="201" 
d="M116 514q11 0 14.5 -3.5t3.5 -14.5v-505q0 -53 -11 -94t-36 -69t-64.5 -43t-96.5 -15q-11 0 -14.5 3.5t-3.5 14.5v26q0 11 3.5 15t14.5 4q41 0 68 11t43.5 31t23 49.5t6.5 67.5v504q0 11 3.5 14.5t14.5 3.5h31v0z" />
    <glyph glyph-name="circumflex" unicode="&#x2c6;" horiz-adv-x="378" 
d="M192 724q11 0 16.5 -2t17.5 -14l123 -107q5 -6 4 -10.5t-13 -4.5h-28q-11 0 -17 1.5t-12 8.5l-96 83l-97 -83q-8 -7 -13 -8.5t-16 -1.5h-26q-12 0 -13 4.5t4 10.5l123 107q11 12 16.5 14t19.5 2h7v0z" />
    <glyph glyph-name="tilde" unicode="&#x2dc;" horiz-adv-x="305" 
d="M295 711q12 0 12 -12q0 -99 -78 -99q-26 0 -44.5 10.5t-34.5 23t-32 23t-36 10.5t-30 -14.5t-10 -40.5q0 -12 -12 -12h-20q-12 0 -12 12q0 51 20 75t58 24q27 0 46 -10.5t35 -23t31.5 -23t35.5 -10.5t30 15t10 40q0 12 11 12h20v0z" />
    <glyph glyph-name="endash" unicode="&#x2013;" horiz-adv-x="575" 
d="M494 300q20 0 20 -20v-25q0 -20 -20 -20h-413q-19 0 -19 20v25q0 20 19 20h413v0z" />
    <glyph glyph-name="emdash" unicode="&#x2014;" horiz-adv-x="774" 
d="M693 300q20 0 20 -20v-26q0 -20 -20 -20h-612q-20 0 -20 20v26q0 20 20 20h612v0z" />
    <glyph glyph-name="quoteleft" unicode="&#x2018;" horiz-adv-x="198" 
d="M107 692q4 10 8 14t15 4h12q9 0 11.5 -3t1.5 -11l-34 -166q-2 -14 -7.5 -18t-17.5 -4h-27q-27 0 -18 22l56 162v0z" />
    <glyph glyph-name="quoteright" unicode="&#x2019;" horiz-adv-x="193" 
d="M102 526q-4 -10 -8 -14t-15 -4h-12q-9 0 -11.5 3t-1.5 11l34 166q2 14 7.5 18t17.5 4h27q27 0 18 -22l-56 -162v0z" />
    <glyph glyph-name="quotesinglbase" unicode="&#x201a;" horiz-adv-x="171" 
d="M107 -108q-2 -10 -5.5 -14t-14.5 -4h-15q-18 0 -18 18v200q0 11 4 14.5t14 3.5h29q10 0 14.5 -3.5t3.5 -14.5l-12 -200v0z" />
    <glyph glyph-name="quotedblleft" unicode="&#x201c;" horiz-adv-x="319" 
d="M107 692q4 10 8 14t15 4h12q9 0 11.5 -3t1.5 -11l-34 -166q-2 -14 -7.5 -18t-17.5 -4h-27q-27 0 -18 22zM228 692q4 10 8 14t15 4h12q9 0 11.5 -3t1.5 -11l-34 -166q-2 -14 -7.5 -18t-18.5 -4h-26q-26 0 -19 22z" />
    <glyph glyph-name="quotedblright" unicode="&#x201d;" horiz-adv-x="314" 
d="M102 526q-4 -10 -8 -14t-15 -4h-12q-9 0 -11.5 3t-1.5 11l34 166q2 14 7.5 18t17.5 4h27q27 0 18 -22zM223 526q-4 -10 -8 -14t-15 -4h-12q-16 0 -13 14l34 166q2 14 7.5 18t17.5 4h26q28 0 19 -22z" />
    <glyph glyph-name="quotedblbase" unicode="&#x201e;" horiz-adv-x="302" 
d="M71 -103q-3 -11 -7.5 -14.5t-14.5 -3.5h-13q-15 0 -12 14l34 166q2 13 7 17.5t18 4.5h26q28 0 19 -22zM192 -103q-3 -11 -7.5 -14.5t-14.5 -3.5h-13q-9 0 -11.5 3t-0.5 11l33 166q2 13 7.5 17.5t18.5 4.5h26q28 0 19 -22z" />
    <glyph glyph-name="dagger" unicode="&#x2020;" horiz-adv-x="532" 
d="M481 478q20 0 20 -20v-28q0 -20 -20 -20h-180v-490q0 -20 -20 -20h-29q-19 0 -19 20v490h-182q-19 0 -19 20v28q0 20 19 20h182v212q0 20 19 20h29q20 0 20 -20v-212h180v0z" />
    <glyph glyph-name="daggerdbl" unicode="&#x2021;" horiz-adv-x="578" 
d="M304 710q19 0 19 -20v-212h180q20 0 20 -20v-28q0 -20 -20 -20h-180v-212h181q11 0 15.5 -4t4.5 -15v-28q0 -20 -20 -20h-181v-211q0 -20 -19 -20h-29q-20 0 -20 20v211h-181q-11 0 -15 4.5t-4 15.5v28q0 11 4 15t15 4h181v212h-181q-20 0 -20 20v28q0 20 20 20h181v212
q0 20 20 20h29v0z" />
    <glyph glyph-name="bullet" unicode="&#x2022;" horiz-adv-x="304" 
d="M152 192q-31 0 -51 20.5t-20 50.5q0 31 20 51.5t51 20.5t51 -20.5t20 -51.5q0 -30 -20 -50.5t-51 -20.5z" />
    <glyph glyph-name="ellipsis" unicode="&#x2026;" horiz-adv-x="607" 
d="M96 80q23 0 31 -8.5t8 -31.5v-6q0 -23 -8 -31.5t-31 -8.5h-6q-23 0 -31.5 8.5t-8.5 31.5v6q0 23 8.5 31.5t31.5 8.5h6zM306 80q23 0 31.5 -8.5t8.5 -31.5v-6q0 -23 -8.5 -31.5t-31.5 -8.5h-6q-23 0 -31 8.5t-8 31.5v6q0 23 8 31.5t31 8.5h6zM517 80q23 0 31 -8.5t8 -31.5
v-6q0 -23 -8 -31.5t-31 -8.5h-6q-23 0 -31.5 8.5t-8.5 31.5v6q0 23 8.5 31.5t31.5 8.5h6z" />
    <glyph glyph-name="perthousand" unicode="&#x2030;" horiz-adv-x="1181" 
d="M36 578q0 69 40 108t118 39t118.5 -39t40.5 -108v-73q0 -69 -40.5 -107.5t-118.5 -38.5t-118 38.5t-40 107.5v73zM681 710q11 0 13 -5.5t-4 -13.5l-495 -673q-8 -12 -14.5 -15t-24.5 -3h-23q-11 0 -13.5 6t2.5 14l496 673q8 11 14 14t22 3h27zM296 576q0 45 -26 69.5
t-76 24.5q-49 0 -75 -24.5t-26 -69.5v-68q0 -45 26 -69.5t75 -24.5q50 0 76 24.5t26 69.5v68zM459 204q0 69 40 108t118 39t118.5 -39t40.5 -108v-74q0 -68 -40.5 -106.5t-118.5 -38.5t-118 38.5t-40 106.5v74zM831 204q0 69 40 108t118 39t118.5 -39t40.5 -108v-74
q0 -68 -40.5 -106.5t-118.5 -38.5t-118 38.5t-40 106.5v74zM718 201q0 45 -25.5 70t-75.5 25q-49 0 -75 -25t-26 -70v-67q0 -45 26 -70t75 -25q50 0 75.5 25t25.5 70v67zM1090 201q0 45 -25.5 70t-75.5 25q-49 0 -75 -25t-26 -70v-67q0 -45 26 -70t75 -25q50 0 75.5 25
t25.5 70v67z" />
    <glyph glyph-name="guilsinglleft" unicode="&#x2039;" horiz-adv-x="336" 
d="M282 97q11 -11 0 -23l-21 -21q-12 -11 -24 0l-198 198q-6 7 -6 11.5t6 11.5l201 201q11 13 23 0l20 -20q6 -7 6.5 -11.5t-6.5 -11.5l-168 -168l167 -167v0z" />
    <glyph glyph-name="guilsinglright" unicode="&#x203a;" horiz-adv-x="336" 
d="M52 432q-7 7 -6.5 11.5t6.5 11.5l20 20q11 13 23 0l201 -201q6 -7 6 -11.5t-6 -11.5l-198 -198q-12 -11 -24 0l-21 21q-11 12 0 23l167 167l-168 168v0z" />
    <glyph glyph-name="Euro" unicode="&#x20ac;" horiz-adv-x="727" 
d="M147 484q0 55 18.5 100t53.5 76t86 48t117 17q99 0 157 -31t88 -87q14 -22 -8 -34l-23 -11q-12 -7 -19 -4.5t-15 13.5q-8 16 -21.5 31.5t-35 27.5t-52 19.5t-71.5 7.5q-97 0 -149 -45t-52 -126v-34h310q18 0 13 -17l-6 -20q-5 -17 -24 -17h-295v-96h267q19 0 14 -17
l-6 -20q-5 -17 -24 -17h-249v-26q2 -81 54 -125t147 -44q43 0 74 8t53 21t35.5 29.5t21.5 34.5q7 11 13.5 13t18.5 -4l24 -12q22 -11 9 -34q-30 -59 -88 -91.5t-161 -32.5q-130 0 -200.5 61t-73.5 176v26h-103q-11 0 -13.5 4t-0.5 14l6 19q5 17 24 17h87v96h-64
q-11 0 -13.5 4t-0.5 14l6 19q5 17 24 17h47v32v0z" />
    <glyph glyph-name="trademark" unicode="&#x2122;" horiz-adv-x="626" 
d="M259 695q8 0 10.5 -2.5t2.5 -11.5v-12q0 -8 -2.5 -10.5t-10.5 -2.5h-80v-200q0 -8 -3.5 -10.5t-12.5 -2.5h-11q-8 0 -11.5 2.5t-3.5 10.5v200h-82q-9 0 -10.5 2.5t-1.5 10.5v12q0 9 1.5 11.5t10.5 2.5h204zM541 695q8 0 11 -2.5t3 -10.5v-226q0 -8 -2.5 -10.5t-10.5 -2.5
h-13q-9 0 -11.5 2.5t-2.5 10.5v113q0 11 0.5 24.5t1.5 27.5l-10 -16l-10 -16l-52 -78q-4 -5 -6.5 -7t-9.5 -2h-6q-6 0 -8.5 1t-6.5 6l-52 77q-5 8 -10.5 15.5t-10.5 15.5q1 -13 1.5 -25t0.5 -23v-113q0 -8 -2 -10.5t-11 -2.5h-13q-9 0 -11.5 2.5t-2.5 10.5v225q0 9 3 11.5
t12 2.5h7q8 0 10.5 -2t6.5 -7l90 -138l90 137q3 5 6.5 7.5t9.5 2.5h9z" />
    </font>
</defs>
</svg>
